Montserrat-SemiBoldItalic.ufo
<glyph name="numbersign" format="2">
  <advance width="707"/>
  <unicode hex="0023"/>
  <outline>
    <contour>
      <point x="346" y="0" type="line"/>
      <point x="430" y="0" type="line"/>
      <point x="654" y="700" type="line"/>
      <point x="570" y="700" type="line"/>
    </contour>
    <contour>
      <point x="8" y="175" type="line"/>
      <point x="632" y="175" type="line"/>
      <point x="648" y="257" type="line"/>
      <point x="24" y="257" type="line"/>
    </contour>
    <contour>
      <point x="87" y="0" type="line"/>
      <point x="170" y="0" type="line"/>
      <point x="394" y="700" type="line"/>
      <point x="311" y="700" type="line"/>
    </contour>
    <contour>
      <point x="94" y="443" type="line"/>
      <point x="718" y="443" type="line"/>
      <point x="734" y="525" type="line"/>
      <point x="110" y="525" type="line"/>
    </contour>
  </outline>
</glyph>
<glyph name="five" format="2">
  <advance width="579"/>
  <unicode hex="0035"/>
  <outline>
    <contour>
      <point x="234" y="-9" type="curve" smooth="yes"/>
      <point x="416" y="-9"/>
      <point x="538" y="90"/>
      <point x="538" y="237" type="curve" smooth="yes"/>
      <point x="538" y="350"/>
      <point x="456" y="426"/>
      <point x="275" y="426" type="curve" smooth="yes"/>
      <point x="148" y="426" type="line"/>
      <point x="200" y="370" type="line"/>
      <point x="287" y="657" type="line"/>
      <point x="212" y="601" type="line"/>
      <point x="573" y="601" type="line"/>
      <point x="593" y="700" type="line"/>
      <point x="190" y="700" type="line"/>
      <point x="80" y="326" type="line"/>
      <point x="255" y="326" type="line" smooth="yes"/>
      <point x="375" y="326"/>
      <point x="423" y="287"/>
      <point x="423" y="224" type="curve" smooth="yes"/>
      <point x="423" y="142"/>
      <point x="357" y="93"/>
      <point x="241" y="93" type="curve" smooth="yes"/>
      <point x="156" y="93"/>
      <point x="85" y="123"/>
      <point x="45" y="166" type="curve"/>
      <point x="-14" y="77" type="line"/>
      <point x="38" y="23"/>
      <point x="128" y="-9"/>
    </contour>
  </outline>
</glyph>
<glyph name="equal" format="2">
  <advance width="586"/>
  <unicode hex="003D"/>
  <outline>
    <contour>
      <point x="98" y="424" type="line"/>
      <point x="551" y="424" type="line"/>
      <point x="570" y="514" type="line"/>
      <point x="116" y="514" type="line"/>
    </contour>
    <contour>
      <point x="50" y="185" type="line"/>
      <point x="504" y="185" type="line"/>
      <point x="522" y="275" type="line"/>
      <point x="68" y="275" type="line"/>
    </contour>
  </outline>
</glyph>
<glyph name="D" format="2">
  <advance width="826"/>
  <unicode hex="0044"/>
  <anchor x="326" y="0" name="bottom"/>
  <anchor x="220" y="356" name="center"/>
  <anchor x="462" y="699" name="top"/>
  <outline>
    <contour>
      <point x="47" y="0" type="line"/>
      <point x="367" y="0" type="line" smooth="yes"/>
      <point x="628" y="0"/>
      <point x="802" y="164"/>
      <point x="802" y="412" type="curve" smooth="yes"/>
      <point x="802" y="587"/>
      <point x="677" y="700"/>
      <point x="465" y="700" type="curve" smooth="yes"/>
      <point x="187" y="700" type="line"/>
    </contour>
    <contour>
      <point x="181" y="99" type="line"/>
      <point x="281" y="601" type="line"/>
      <point x="453" y="601" type="line" smooth="yes"/>
      <point x="609" y="601"/>
      <point x="687" y="525"/>
      <point x="687" y="405" type="curve" smooth="yes"/>
      <point x="687" y="229"/>
      <point x="567" y="99"/>
      <point x="370" y="99" type="curve" smooth="yes"/>
    </contour>
  </outline>
</glyph>
<glyph name="J" format="2">
  <advance width="520"/>
  <unicode hex="004A"/>
  <anchor x="331" y="700" name="top"/>
  <outline>
    <contour>
      <point x="167" y="-9" type="curve" smooth="yes"/>
      <point x="302" y="-9"/>
      <point x="384" y="52"/>
      <point x="418" y="224" type="curve" smooth="yes"/>
      <point x="513" y="700" type="line"/>
      <point x="150" y="700" type="line"/>
      <point x="130" y="601" type="line"/>
      <point x="381" y="601" type="line"/>
      <point x="305" y="219" type="line" smooth="yes"/>
      <point x="287" y="127"/>
      <point x="241" y="90"/>
      <point x="169" y="90" type="curve" smooth="yes"/>
      <point x="108" y="90"/>
      <point x="62" y="119"/>
      <point x="35" y="169" type="curve"/>
      <point x="-43" y="94" type="line"/>
      <point x="-6" y="29"/>
      <point x="68" y="-9"/>
    </contour>
  </outline>
</glyph>
<glyph name="P" format="2">
  <advance width="724"/>
  <unicode hex="0050"/>
  <outline>
    <contour>
      <point x="47" y="0" type="line"/>
      <point x="161" y="0" type="line"/>
      <point x="214" y="262" type="line"/>
      <point x="153" y="207" type="line"/>
      <point x="382" y="207" type="line" smooth="yes"/>
      <point x="586" y="207"/>
      <point x="713" y="313"/>
      <point x="713" y="492" type="curve" smooth="yes"/>
      <point x="713" y="623"/>
      <point x="617" y="700"/>
      <point x="451" y="700" type="curve" smooth="yes"/>
      <point x="187" y="700" type="line"/>
    </contour>
    <contour>
      <point x="211" y="249" type="line"/>
      <point x="293" y="659" type="line"/>
      <point x="233" y="601" type="line"/>
      <point x="440" y="601" type="line" smooth="yes"/>
      <point x="541" y="601"/>
      <point x="598" y="561"/>
      <point x="598" y="481" type="curve" smooth="yes"/>
      <point x="598" y="366"/>
      <point x="520" y="306"/>
      <point x="385" y="306" type="curve" smooth="yes"/>
      <point x="171" y="306" type="line"/>
    </contour>
  </outline>
</glyph>
<glyph name="X" format="2">
  <advance width="683"/>
  <unicode hex="0058"/>
  <outline>
    <contour>
      <point x="-41" y="0" type="line"/>
      <point x="96" y="0" type="line"/>
      <point x="378" y="308" type="line"/>
      <point x="327" y="311" type="line"/>
      <point x="495" y="0" type="line"/>
      <point x="617" y="0" type="line"/>
      <point x="401" y="394" type="line"/>
      <point x="398" y="329" type="line"/>
      <point x="742" y="700" type="line"/>
      <point x="611" y="700" type="line"/>
      <point x="343" y="411" type="line"/>
      <point x="394" y="407" type="line"/>
      <point x="235" y="700" type="line"/>
      <point x="114" y="700" type="line"/>
      <point x="318" y="327" type="line"/>
      <point x="324" y="392" type="line"/>
    </contour>
  </outline>
</glyph>
<glyph name="Z" format="2">
  <advance width="660"/>
  <unicode hex="005A"/>
  <anchor x="289.99" y="0" name="bottom"/>
  <anchor x="424" y="700" name="top"/>
  <outline>
    <contour>
      <point x="-13" y="0" type="line"/>
      <point x="579" y="0" type="line"/>
      <point x="599" y="99" type="line"/>
      <point x="112" y="99" type="line"/>
      <point x="122" y="55" type="line"/>
      <point x="692" y="622" type="line"/>
      <point x="708" y="700" type="line"/>
      <point x="138" y="700" type="line"/>
      <point x="118" y="601" type="line"/>
      <point x="583" y="601" type="line"/>
      <point x="573" y="645" type="line"/>
      <point x="3" y="78" type="line"/>
    </contour>
  </outline>
</glyph>
<glyph name="h" format="2">
  <advance width="683"/>
  <unicode hex="0068"/>
  <anchor x="290" y="0" name="bottom"/>
  <anchor x="274" y="635" name="center"/>
  <anchor x="237" y="742" name="top"/>
  <anchor x="316" y="532" name="topright"/>
  <outline>
    <contour>
      <point x="419" y="538" type="curve" smooth="yes"/>
      <point x="326" y="538"/>
      <point x="247" y="504"/>
      <point x="196" y="429" type="curve"/>
      <point x="220" y="380" type="line"/>
      <point x="292" y="742" type="line"/>
      <point x="182" y="742" type="line"/>
      <point x="34" y="0" type="line"/>
      <point x="144" y="0" type="line"/>
      <point x="200" y="279" type="line" smooth="yes"/>
      <point x="222" y="388"/>
      <point x="289" y="440"/>
      <point x="386" y="440" type="curve" smooth="yes"/>
      <point x="480" y="440"/>
      <point x="515" y="387"/>
      <point x="497" y="296" type="curve" smooth="yes"/>
      <point x="438" y="0" type="line"/>
      <point x="548" y="0" type="line"/>
      <point x="607" y="295" type="line" smooth="yes"/>
      <point x="638" y="451"/>
      <point x="558" y="538"/>
    </contour>
  </outline>
</glyph>
<glyph name="n" format="2">
  <advance width="683"/>
  <unicode hex="006E"/>
  <anchor x="291" y="0" name="bottom"/>
  <anchor x="397" y="532" name="top"/>
  <outline>
    <contour>
      <point x="419" y="538" type="curve" smooth="yes"/>
      <point x="326" y="538"/>
      <point x="247" y="504"/>
      <point x="196" y="429" type="curve"/>
      <point x="215" y="380" type="line"/>
      <point x="245" y="532" type="line"/>
      <point x="140" y="532" type="line"/>
      <point x="34" y="0" type="line"/>
      <point x="144" y="0" type="line"/>
      <point x="200" y="279" type="line" smooth="yes"/>
      <point x="222" y="388"/>
      <point x="289" y="440"/>
      <point x="386" y="440" type="curve" smooth="yes"/>
      <point x="480" y="440"/>
      <point x="515" y="387"/>
      <point x="497" y="296" type="curve" smooth="yes"/>
      <point x="438" y="0" type="line"/>
      <point x="548" y="0" type="line"/>
      <point x="607" y="295" type="line" smooth="yes"/>
      <point x="638" y="451"/>
      <point x="558" y="538"/>
    </contour>
  </outline>
</glyph>
<glyph name="o" format="2">
  <advance width="640"/>
  <unicode hex="006F"/>
  <anchor x="265" y="0" name="bottom"/>
  <anchor x="318" y="266" name="center"/>
  <anchor x="366" y="0" name="ogonek"/>
  <anchor x="370" y="532" name="top"/>
  <anchor x="504" y="532" name="topright"/>
  <outline>
    <contour>
      <point x="290" y="-6" type="curve" smooth="yes"/>
      <point x="473" y="-6"/>
      <point x="604" y="127"/>
      <point x="604" y="306" type="curve" smooth="yes"/>
      <point x="604" y="447"/>
      <point x="504" y="538"/>
      <point x="350" y="538" type="curve" smooth="yes"/>
      <point x="167" y="538"/>
      <point x="36" y="405"/>
      <point x="36" y="226" type="curve" smooth="yes"/>
      <point x="36" y="86"/>
      <point x="136" y="-6"/>
    </contour>
    <contour>
      <point x="297" y="90" type="curve" smooth="yes"/>
      <point x="201" y="90"/>
      <point x="147" y="143"/>
      <point x="147" y="231" type="curve" smooth="yes"/>
      <point x="147" y="355"/>
      <point x="230" y="442"/>
      <point x="343" y="442" type="curve" smooth="yes"/>
      <point x="439" y="442"/>
      <point x="493" y="389"/>
      <point x="493" y="301" type="curve" smooth="yes"/>
      <point x="493" y="177"/>
      <point x="410" y="90"/>
    </contour>
  </outline>
</glyph>
<glyph name="r" format="2">
  <advance width="415"/>
  <unicode hex="0072"/>
  <anchor x="89" y="0" name="bottom"/>
  <anchor x="288" y="532" name="top"/>
  <outline>
    <contour>
      <point x="34" y="0" type="line"/>
      <point x="144" y="0" type="line"/>
      <point x="197" y="264" type="line" smooth="yes"/>
      <point x="220" y="381"/>
      <point x="288" y="433"/>
      <point x="390" y="433" type="curve" smooth="yes"/>
      <point x="401" y="433"/>
      <point x="408" y="432"/>
      <point x="418" y="431" type="curve"/>
      <point x="438" y="538" type="line"/>
      <point x="328" y="538"/>
      <point x="255" y="510"/>
      <point x="205" y="424" type="curve"/>
      <point x="215" y="380" type="line"/>
      <point x="245" y="532" type="line"/>
      <point x="140" y="532" type="line"/>
    </contour>
  </outline>
</glyph>
<glyph name="y" format="2">
  <advance width="568"/>
  <unicode hex="0079"/>
  <guideline x="329" y="240" angle="57.5034"/>
  <anchor x="370" y="0" name="bottom"/>
  <anchor x="324" y="532" name="top"/>
  <outline>
    <contour>
      <point x="37" y="-200" type="curve" smooth="yes"/>
      <point x="125" y="-200"/>
      <point x="180" y="-165"/>
      <point x="252" y="-52" type="curve" smooth="yes"/>
      <point x="624" y="532" type="line"/>
      <point x="514" y="532" type="line"/>
      <point x="215" y="56" type="line"/>
      <point x="203" y="44" type="line"/>
      <point x="155" y="-31" type="line" smooth="yes"/>
      <point x="119" y="-87"/>
      <point x="88" y="-107"/>
      <point x="45" y="-107" type="curve" smooth="yes"/>
      <point x="8" y="-107"/>
      <point x="-22" y="-93"/>
      <point x="-44" y="-72" type="curve"/>
      <point x="-100" y="-153" type="line"/>
      <point x="-71" y="-183"/>
      <point x="-15" y="-200"/>
    </contour>
    <contour>
      <point x="182" y="-18" type="line"/>
      <point x="269" y="66" type="line"/>
      <point x="160" y="532" type="line"/>
      <point x="50" y="532" type="line"/>
    </contour>
  </outline>
</glyph>
<glyph name="z" format="2">
  <advance width="526"/>
  <unicode hex="007A"/>
  <anchor x="217" y="0" name="bottom"/>
  <anchor x="317" y="532" name="top"/>
  <outline>
    <contour>
      <point x="-15" y="0" type="line"/>
      <point x="437" y="0" type="line"/>
      <point x="455" y="90" type="line"/>
      <point x="89" y="90" type="line"/>
      <point x="111" y="52" type="line"/>
      <point x="522" y="461" type="line"/>
      <point x="536" y="532" type="line"/>
      <point x="100" y="532" type="line"/>
      <point x="82" y="442" type="line"/>
      <point x="431" y="442" type="line"/>
      <point x="410" y="480" type="line"/>
      <point x="-1" y="71" type="line"/>
    </contour>
  </outline>
</glyph>
<glyph name="braceright" format="2">
  <advance width="361"/>
  <unicode hex="007D"/>
  <outline>
    <contour>
      <point x="-73" y="-194" type="line"/>
      <point x="-26" y="-194" type="line" smooth="yes"/>
      <point x="87" y="-194"/>
      <point x="143" y="-147"/>
      <point x="164" y="-43" type="curve" smooth="yes"/>
      <point x="209" y="179" type="line" smooth="yes"/>
      <point x="216" y="213"/>
      <point x="234" y="228"/>
      <point x="263" y="228" type="curve" smooth="yes"/>
      <point x="297" y="228" type="line"/>
      <point x="315" y="320" type="line"/>
      <point x="280" y="320" type="line" smooth="yes"/>
      <point x="253" y="320"/>
      <point x="239" y="335"/>
      <point x="246" y="369" type="curve" smooth="yes"/>
      <point x="288" y="579" type="line" smooth="yes"/>
      <point x="308" y="681"/>
      <point x="257" y="742"/>
      <point x="161" y="742" type="curve" smooth="yes"/>
      <point x="114" y="742" type="line"/>
      <point x="96" y="650" type="line"/>
      <point x="120" y="650" type="line" smooth="yes"/>
      <point x="164" y="650"/>
      <point x="187" y="623"/>
      <point x="176" y="567" type="curve" smooth="yes"/>
      <point x="137" y="371" type="line" smooth="yes"/>
      <point x="124" y="307"/>
      <point x="148" y="275"/>
      <point x="205" y="268" type="curve"/>
      <point x="208" y="281" type="line"/>
      <point x="139" y="274"/>
      <point x="113" y="251"/>
      <point x="98" y="177" type="curve" smooth="yes"/>
      <point x="56" y="-31" type="line" smooth="yes"/>
      <point x="47" y="-77"/>
      <point x="21" y="-102"/>
      <point x="-33" y="-102" type="curve" smooth="yes"/>
      <point x="-55" y="-102" type="line"/>
    </contour>
  </outline>
</glyph>
<glyph name="exclamdown" format="2">
  <advance width="273"/>
  <unicode hex="00A1"/>
  <outline>
    <contour>
      <point x="-13" y="-154" type="line"/>
      <point x="117" y="-154" type="line"/>
      <point x="187" y="305" type="line"/>
      <point x="101" y="305" type="line"/>
    </contour>
    <contour>
      <point x="174" y="396" type="curve" smooth="yes"/>
      <point x="216" y="396"/>
      <point x="249" y="428"/>
      <point x="249" y="471" type="curve" smooth="yes"/>
      <point x="249" y="508"/>
      <point x="220" y="538"/>
      <point x="180" y="538" type="curve" smooth="yes"/>
      <point x="137" y="538"/>
      <point x="104" y="504"/>
      <point x="104" y="461" type="curve" smooth="yes"/>
      <point x="104" y="425"/>
      <point x="133" y="396"/>
    </contour>
  </outline>
</glyph>
<glyph name="paragraph" format="2">
  <advance width="657"/>
  <unicode hex="00B6"/>
  <outline>
    <contour>
      <point x="153" y="-100" type="line"/>
      <point x="244" y="-100" type="line"/>
      <point x="395" y="657" type="line"/>
      <point x="544" y="657" type="line"/>
      <point x="393" y="-100" type="line"/>
      <point x="484" y="-100" type="line"/>
      <point x="652" y="742" type="line"/>
      <point x="343" y="742" type="line" smooth="yes"/>
      <point x="186" y="742"/>
      <point x="74" y="676"/>
      <point x="74" y="532" type="curve" smooth="yes"/>
      <point x="74" y="434"/>
      <point x="149" y="381"/>
      <point x="248" y="377" type="curve"/>
    </contour>
  </outline>
</glyph>
<glyph name="ordmasculine" format="2">
  <advance width="421"/>
  <unicode hex="00BA"/>
  <outline>
    <contour>
      <point x="254" y="423" type="curve" smooth="yes"/>
      <point x="370" y="423"/>
      <point x="456" y="499"/>
      <point x="456" y="606" type="curve" smooth="yes"/>
      <point x="456" y="690"/>
      <point x="391" y="748"/>
      <point x="295" y="748" type="curve" smooth="yes"/>
      <point x="179" y="748"/>
      <point x="92" y="672"/>
      <point x="92" y="566" type="curve" smooth="yes"/>
      <point x="92" y="482"/>
      <point x="157" y="423"/>
    </contour>
    <contour>
      <point x="260" y="488" type="curve" smooth="yes"/>
      <point x="205" y="488"/>
      <point x="169" y="520"/>
      <point x="169" y="569" type="curve" smooth="yes"/>
      <point x="169" y="633"/>
      <point x="216" y="683"/>
      <point x="289" y="683" type="curve" smooth="yes"/>
      <point x="342" y="683"/>
      <point x="379" y="652"/>
      <point x="379" y="602" type="curve" smooth="yes"/>
      <point x="379" y="536"/>
      <point x="330" y="488"/>
    </contour>
  </outline>
</glyph>
<glyph name="divide" format="2">
  <advance width="586"/>
  <unicode hex="00F7"/>
  <outline>
    <contour>
      <point x="74" y="305" type="line"/>
      <point x="528" y="305" type="line"/>
      <point x="546" y="395" type="line"/>
      <point x="92" y="395" type="line"/>
    </contour>
    <contour>
      <point x="266" y="84" type="curve" smooth="yes"/>
      <point x="303" y="84"/>
      <point x="334" y="115"/>
      <point x="334" y="156" type="curve" smooth="yes"/>
      <point x="334" y="192"/>
      <point x="307" y="216"/>
      <point x="274" y="216" type="curve" smooth="yes"/>
      <point x="237" y="216"/>
      <point x="206" y="187"/>
      <point x="206" y="145" type="curve" smooth="yes"/>
      <point x="206" y="110"/>
      <point x="232" y="84"/>
    </contour>
    <contour>
      <point x="345" y="484" type="curve" smooth="yes"/>
      <point x="383" y="484"/>
      <point x="413" y="515"/>
      <point x="413" y="556" type="curve" smooth="yes"/>
      <point x="413" y="592"/>
      <point x="387" y="616"/>
      <point x="353" y="616" type="curve" smooth="yes"/>
      <point x="316" y="616"/>
      <point x="285" y="587"/>
      <point x="285" y="545" type="curve" smooth="yes"/>
      <point x="285" y="510"/>
      <point x="312" y="484"/>
    </contour>
  </outline>
</glyph>
<glyph name="IJ" format="2">
  <advance width="721"/>
  <unicode hex="0132"/>
  <anchor x="256" y="700" name="top"/>
  <outline>
    <contour>
      <point x="296" y="-9" type="curve" smooth="yes"/>
      <point x="481" y="-9"/>
      <point x="592" y="89"/>
      <point x="633" y="297" type="curve" smooth="yes"/>
      <point x="713" y="700" type="line"/>
      <point x="599" y="700" type="line"/>
      <point x="520" y="303" type="line" smooth="yes"/>
      <point x="491" y="155"/>
      <point x="424" y="93"/>
      <point x="304" y="93" type="curve" smooth="yes"/>
      <point x="227" y="93"/>
      <point x="156" y="115"/>
      <point x="99" y="156" type="curve"/>
      <point x="42" y="64" type="line"/>
      <point x="101" y="20"/>
      <point x="186" y="-9"/>
    </contour>
    <contour>
      <point x="103" y="312" type="line"/>
      <point x="217" y="312" type="line"/>
      <point x="295" y="700" type="line"/>
      <point x="181" y="700" type="line"/>
    </contour>
  </outline>
</glyph>
<glyph name="kgreenlandic" format="2">
  <advance width="615"/>
  <unicode hex="0138"/>
  <anchor x="239" y="0" name="bottom"/>
  <anchor x="344" y="532" name="top"/>
  <outline>
    <contour>
      <point x="152" y="130" type="line"/>
      <point x="308" y="252" type="line"/>
      <point x="366" y="295" type="line"/>
      <point x="666" y="532" type="line"/>
      <point x="512" y="532" type="line"/>
      <point x="175" y="265" type="line"/>
    </contour>
    <contour>
      <point x="34" y="0" type="line"/>
      <point x="144" y="0" type="line"/>
      <point x="250" y="532" type="line"/>
      <point x="140" y="532" type="line"/>
    </contour>
    <contour>
      <point x="443" y="0" type="line"/>
      <point x="570" y="0" type="line"/>
      <point x="364" y="334" type="line"/>
      <point x="289" y="249" type="line"/>
    </contour>
  </outline>
</glyph>
<glyph name="OE" format="2">
  <advance width="1128"/>
  <unicode hex="0152"/>
  <anchor x="561" y="0" name="bottom"/>
  <anchor x="701" y="700" name="top"/>
  <outline>
    <contour>
      <point x="395" y="0" type="curve" smooth="yes"/>
      <point x="534" y="0" type="line"/>
      <point x="552" y="99" type="line"/>
      <point x="407" y="99" type="line" smooth="yes"/>
      <point x="251" y="99"/>
      <point x="173" y="175"/>
      <point x="173" y="295" type="curve" smooth="yes"/>
      <point x="173" y="471"/>
      <point x="293" y="601"/>
      <point x="490" y="601" type="curve" smooth="yes"/>
      <point x="656" y="601" type="line"/>
      <point x="674" y="700" type="line"/>
      <point x="493" y="700" type="line" smooth="yes"/>
      <point x="232" y="700"/>
      <point x="58" y="536"/>
      <point x="58" y="288" type="curve" smooth="yes"/>
      <point x="58" y="113"/>
      <point x="183" y="0"/>
    </contour>
    <contour>
      <point x="505" y="0" type="line"/>
      <point x="1021" y="0" type="line"/>
      <point x="1041" y="99" type="line"/>
      <point x="639" y="99" type="line"/>
      <point x="739" y="601" type="line"/>
      <point x="1127" y="601" type="line"/>
      <point x="1147" y="700" type="line"/>
      <point x="645" y="700" type="line"/>
    </contour>
    <contour>
      <point x="672" y="307" type="line"/>
      <point x="1026" y="307" type="line"/>
      <point x="1045" y="404" type="line"/>
      <point x="691" y="404" type="line"/>
    </contour>
  </outline>
</glyph>
<glyph name="gstroke" format="2">
  <advance width="702"/>
  <unicode hex="01E5"/>
  <outline>
    <contour>
      <point x="246" y="-200" type="curve" smooth="yes"/>
      <point x="424" y="-200"/>
      <point x="530" y="-119"/>
      <point x="569" y="77" type="curve" smooth="yes"/>
      <point x="660" y="532" type="line"/>
      <point x="555" y="532" type="line"/>
      <point x="528" y="395" type="line"/>
      <point x="511" y="281" type="line"/>
      <point x="479" y="175" type="line"/>
      <point x="456" y="59" type="line" smooth="yes"/>
      <point x="434" y="-49"/>
      <point x="375" y="-103"/>
      <point x="254" y="-103" type="curve" smooth="yes"/>
      <point x="172" y="-103"/>
      <point x="100" y="-78"/>
      <point x="59" y="-42" type="curve"/>
      <point x="-1" y="-127" type="line"/>
      <point x="59" y="-175"/>
      <point x="144" y="-200"/>
    </contour>
    <contour>
      <point x="218" y="-56" type="line"/>
      <point x="606" y="-56" type="line"/>
      <point x="620" y="19" type="line"/>
      <point x="232" y="18" type="line"/>
    </contour>
    <contour>
      <point x="280" y="48" type="curve" smooth="yes"/>
      <point x="460" y="48"/>
      <point x="563" y="181"/>
      <point x="563" y="350" type="curve"/>
      <point x="563" y="482"/>
      <point x="461" y="538"/>
      <point x="345" y="538" type="curve" smooth="yes"/>
      <point x="167" y="538"/>
      <point x="41" y="415"/>
      <point x="41" y="257" type="curve" smooth="yes"/>
      <point x="41" y="127"/>
      <point x="139" y="48"/>
    </contour>
    <contour>
      <point x="302" y="140" type="curve" smooth="yes"/>
      <point x="208" y="140"/>
      <point x="152" y="186"/>
      <point x="152" y="262" type="curve" smooth="yes"/>
      <point x="152" y="370"/>
      <point x="234" y="447"/>
      <point x="348" y="447" type="curve" smooth="yes"/>
      <point x="443" y="447"/>
      <point x="498" y="400"/>
      <point x="498" y="324" type="curve" smooth="yes"/>
      <point x="498" y="217"/>
      <point x="416" y="140"/>
    </contour>
  </outline>
</glyph>
<glyph name="Oogonek" format="2">
  <advance width="841"/>
  <unicode hex="01EA"/>
  <anchor x="507" y="700" name="top"/>
  <outline>
    <contour>
      <point x="341" y="-226" type="curve" smooth="yes"/>
      <point x="379" y="-226"/>
      <point x="410" y="-217"/>
      <point x="437" y="-203" type="curve"/>
      <point x="424" y="-147" type="line"/>
      <point x="405" y="-157"/>
      <point x="381" y="-163"/>
      <point x="358" y="-163" type="curve" smooth="yes"/>
      <point x="328" y="-163"/>
      <point x="308" y="-148"/>
      <point x="308" y="-120" type="curve" smooth="yes"/>
      <point x="308" y="-77"/>
      <point x="354" y="-29"/>
      <point x="495" y="2" type="curve" smooth="yes"/>
      <point x="689" y="44"/>
      <point x="817" y="207"/>
      <point x="817" y="412" type="curve" smooth="yes"/>
      <point x="817" y="588"/>
      <point x="695" y="709"/>
      <point x="485" y="709" type="curve" smooth="yes"/>
      <point x="227" y="709"/>
      <point x="58" y="523"/>
      <point x="58" y="288" type="curve" smooth="yes"/>
      <point x="58" y="112"/>
      <point x="180" y="-9"/>
      <point x="390" y="-9" type="curve"/>
      <point x="375" y="25" type="line"/>
      <point x="271" y="-13"/>
      <point x="229" y="-71"/>
      <point x="229" y="-134" type="curve" smooth="yes"/>
      <point x="229" y="-193"/>
      <point x="276" y="-226"/>
    </contour>
    <contour>
      <point x="400" y="93" type="curve" smooth="yes"/>
      <point x="252" y="93"/>
      <point x="173" y="175"/>
      <point x="173" y="295" type="curve" smooth="yes"/>
      <point x="173" y="464"/>
      <point x="290" y="607"/>
      <point x="475" y="607" type="curve" smooth="yes"/>
      <point x="623" y="607"/>
      <point x="702" y="525"/>
      <point x="702" y="405" type="curve" smooth="yes"/>
      <point x="702" y="236"/>
      <point x="585" y="93"/>
    </contour>
  </outline>
</glyph>
<glyph name="gravecomb" format="2">
  <unicode hex="0300"/>
  <anchor x="353" y="532" name="_top"/>
  <anchor x="388" y="709" name="top"/>
  <outline>
    <contour>
      <point x="347" y="607" type="line"/>
      <point x="449" y="607" type="line"/>
      <point x="339" y="741" type="line"/>
      <point x="203" y="741" type="line"/>
    </contour>
  </outline>
</glyph>
<glyph name="tildecomb" format="2">
  <unicode hex="0303"/>
  <anchor x="353" y="532" name="_top"/>
  <anchor x="386" y="699" name="top"/>
  <outline>
    <contour>
      <point x="449" y="608" type="curve" smooth="yes"/>
      <point x="509" y="608"/>
      <point x="552" y="655"/>
      <point x="565" y="734" type="curve"/>
      <point x="504" y="734" type="line"/>
      <point x="498" y="700"/>
      <point x="478" y="675"/>
      <point x="449" y="675" type="curve" smooth="yes"/>
      <point x="406" y="675"/>
      <point x="380" y="742"/>
      <point x="315" y="742" type="curve" smooth="yes"/>
      <point x="255" y="742"/>
      <point x="211" y="696"/>
      <point x="198" y="614" type="curve"/>
      <point x="259" y="614" type="line"/>
      <point x="265" y="650"/>
      <point x="285" y="675"/>
      <point x="314" y="675" type="curve" smooth="yes"/>
      <point x="357" y="675"/>
      <point x="383" y="608"/>
    </contour>
  </outline>
</glyph>
<glyph name="dblgravecomb" format="2">
  <unicode hex="030F"/>
  <anchor x="353" y="532" name="_top"/>
  <anchor x="388" y="709" name="top"/>
  <outline>
    <contour>
      <point x="416" y="607" type="line"/>
      <point x="502" y="607" type="line"/>
      <point x="443" y="741" type="line"/>
      <point x="333" y="741" type="line"/>
    </contour>
    <contour>
      <point x="235" y="607" type="line"/>
      <point x="321" y="607" type="line"/>
      <point x="262" y="741" type="line"/>
      <point x="152" y="741" type="line"/>
    </contour>
  </outline>
</glyph>
<glyph name="slashlongcomb" format="2">
  <unicode hex="0338"/>
  <anchor x="313" y="266" name="_center"/>
  <outline>
    <contour>
      <point x="-8" y="-70" type="line"/>
      <point x="62" y="-70" type="line"/>
      <point x="633" y="601" type="line"/>
      <point x="563" y="601" type="line"/>
    </contour>
  </outline>
</glyph>
<glyph name="mu" format="2">
  <advance width="684"/>
  <unicode hex="03BC"/>
  <outline>
    <contour>
      <point x="-5" y="-194" type="line"/>
      <point x="105" y="-194" type="line"/>
      <point x="169" y="120" type="line"/>
      <point x="128" y="79" type="line"/>
      <point x="156" y="20"/>
      <point x="207" y="-6"/>
      <point x="291" y="-6" type="curve" smooth="yes"/>
      <point x="358" y="-6"/>
      <point x="437" y="28"/>
      <point x="488" y="103" type="curve"/>
      <point x="469" y="152" type="line"/>
      <point x="439" y="0" type="line"/>
      <point x="544" y="0" type="line"/>
      <point x="650" y="532" type="line"/>
      <point x="540" y="532" type="line"/>
      <point x="484" y="253" type="line" smooth="yes"/>
      <point x="462" y="144"/>
      <point x="395" y="92"/>
      <point x="300" y="92" type="curve" smooth="yes"/>
      <point x="208" y="92"/>
      <point x="173" y="145"/>
      <point x="191" y="236" type="curve" smooth="yes"/>
      <point x="250" y="532" type="line"/>
      <point x="140" y="532" type="line"/>
    </contour>
  </outline>
</glyph>
<glyph name="Sha-cy" format="2">
  <advance width="1096"/>
  <unicode hex="0428"/>
  <anchor x="824" y="0" name="bottomleft"/>
  <outline>
    <contour>
      <point x="486" y="99" type="line"/>
      <point x="158" y="99" type="line"/>
      <point x="179" y="70" type="line"/>
      <point x="304" y="700" type="line"/>
      <point x="191" y="700" type="line"/>
      <point x="51" y="0" type="line"/>
      <point x="939" y="0" type="line"/>
      <point x="1079" y="700" type="line"/>
      <point x="966" y="700" type="line"/>
      <point x="841" y="70" type="line"/>
      <point x="875" y="99" type="line"/>
      <point x="545" y="99" type="line"/>
      <point x="567" y="70" type="line"/>
      <point x="692" y="700" type="line"/>
      <point x="579" y="700" type="line"/>
      <point x="454" y="70" type="line"/>
    </contour>
  </outline>
</glyph>
<glyph name="ge-cy" format="2">
  <advance width="495"/>
  <unicode hex="0433"/>
  <anchor x="36" y="0" name="_bottomleft"/>
  <anchor x="36" y="0" name="bottomleft"/>
  <anchor x="365" y="0" name="bottomright"/>
  <anchor x="344" y="530" name="top"/>
  <outline>
    <contour>
      <point x="36" y="0" type="line"/>
      <point x="146" y="0" type="line"/>
      <point x="237" y="461" type="line"/>
      <point x="206" y="436" type="line"/>
      <point x="523" y="436" type="line"/>
      <point x="542" y="532" type="line"/>
      <point x="142" y="532" type="line"/>
    </contour>
  </outline>
</glyph>
<glyph name="ereversed-cy" format="2">
  <advance width="581"/>
  <unicode hex="044D"/>
  <anchor x="322" y="530" name="top"/>
  <outline>
    <contour>
      <point x="167" y="229" type="line"/>
      <point x="461" y="229" type="line"/>
      <point x="477" y="310" type="line"/>
      <point x="184" y="310" type="line"/>
    </contour>
    <contour>
      <point x="291" y="538" type="curve" smooth="yes"/>
      <point x="201" y="538"/>
      <point x="114" y="505"/>
      <point x="56" y="450" type="curve"/>
      <point x="110" y="389" type="line"/>
      <point x="159" y="432"/>
      <point x="215" y="452"/>
      <point x="275" y="452" type="curve" smooth="yes"/>
      <point x="376" y="452"/>
      <point x="437" y="395"/>
      <point x="437" y="301" type="curve" smooth="yes"/>
      <point x="437" y="180"/>
      <point x="333" y="80"/>
      <point x="204" y="80" type="curve" smooth="yes"/>
      <point x="145" y="80"/>
      <point x="92" y="101"/>
      <point x="59" y="140" type="curve"/>
      <point x="-11" y="84" type="line"/>
      <point x="31" y="25"/>
      <point x="106" y="-8"/>
      <point x="199" y="-8" type="curve" smooth="yes"/>
      <point x="390" y="-8"/>
      <point x="544" y="131"/>
      <point x="544" y="305" type="curve" smooth="yes"/>
      <point x="544" y="445"/>
      <point x="442" y="538"/>
    </contour>
  </outline>
</glyph>
<glyph name="tshe-cy" format="2">
  <advance width="673"/>
  <unicode hex="045B"/>
  <anchor x="295" y="0" name="bottom"/>
  <anchor x="269" y="634" name="center"/>
  <anchor x="241" y="742" name="top"/>
  <anchor x="321" y="532" name="topright"/>
  <outline>
    <contour>
      <point x="28" y="602" type="line"/>
      <point x="497" y="602" type="line"/>
      <point x="510" y="666" type="line"/>
      <point x="41" y="666" type="line"/>
    </contour>
    <component base="h" xOffset="1"/>
  </outline>
</glyph>
<glyph name="Yusbig-cy" format="2">
  <advance width="909"/>
  <unicode hex="046A"/>
  <outline>
    <contour>
      <point x="-37" y="0" type="line"/>
      <point x="81" y="0" type="line"/>
      <point x="156" y="128" type="line" smooth="yes"/>
      <point x="225" y="246"/>
      <point x="294" y="292"/>
      <point x="374" y="292" type="curve" smooth="yes"/>
      <point x="408" y="292" type="line"/>
      <point x="350" y="0" type="line"/>
      <point x="453" y="0" type="line"/>
      <point x="511" y="292" type="line"/>
      <point x="547" y="292" type="line" smooth="yes"/>
      <point x="625" y="292"/>
      <point x="676" y="244"/>
      <point x="698" y="128" type="curve" smooth="yes"/>
      <point x="722" y="0" type="line"/>
      <point x="840" y="0" type="line"/>
      <point x="808" y="155" type="line" smooth="yes"/>
      <point x="775" y="312"/>
      <point x="703" y="376"/>
      <point x="591" y="376" type="curve" smooth="yes"/>
      <point x="363" y="376" type="line" smooth="yes"/>
      <point x="250" y="376"/>
      <point x="154" y="311"/>
      <point x="59" y="156" type="curve" smooth="yes"/>
    </contour>
    <contour>
      <point x="477" y="376" type="line"/>
      <point x="297" y="612" type="line"/>
      <point x="752" y="612" type="line"/>
    </contour>
    <contour>
      <point x="375" y="354" type="line"/>
      <point x="570" y="354" type="line"/>
      <point x="882" y="629" type="line"/>
      <point x="896" y="700" type="line"/>
      <point x="188" y="700" type="line"/>
      <point x="173" y="625" type="line"/>
    </contour>
  </outline>
</glyph>
<glyph name="yusbig-cy" format="2">
  <advance width="717"/>
  <unicode hex="046B"/>
  <outline>
    <contour>
      <point x="-40" y="0" type="line"/>
      <point x="68" y="0" type="line"/>
      <point x="118" y="90" type="line" smooth="yes"/>
      <point x="167" y="177"/>
      <point x="214" y="213"/>
      <point x="275" y="213" type="curve" smooth="yes"/>
      <point x="299" y="213" type="line"/>
      <point x="256" y="0" type="line"/>
      <point x="351" y="0" type="line"/>
      <point x="394" y="213" type="line"/>
      <point x="423" y="213" type="line" smooth="yes"/>
      <point x="485" y="213"/>
      <point x="514" y="177"/>
      <point x="529" y="90" type="curve" smooth="yes"/>
      <point x="544" y="0" type="line"/>
      <point x="652" y="0" type="line"/>
      <point x="629" y="114" type="line" smooth="yes"/>
      <point x="604" y="238"/>
      <point x="555" y="289"/>
      <point x="462" y="289" type="curve" smooth="yes"/>
      <point x="266" y="289" type="line" smooth="yes"/>
      <point x="173" y="289"/>
      <point x="104" y="238"/>
      <point x="29" y="114" type="curve" smooth="yes"/>
    </contour>
    <contour>
      <point x="361" y="288" type="line"/>
      <point x="230" y="457" type="line"/>
      <point x="560" y="457" type="line"/>
    </contour>
    <contour>
      <point x="268" y="267" type="line"/>
      <point x="444" y="267" type="line"/>
      <point x="676" y="463" type="line"/>
      <point x="689" y="532" type="line"/>
      <point x="130" y="532" type="line"/>
      <point x="117" y="463" type="line"/>
    </contour>
  </outline>
</glyph>
<glyph name="izhitsa-cy" format="2">
  <advance width="606"/>
  <unicode hex="0475"/>
  <outline>
    <contour>
      <point x="191" y="0" type="line"/>
      <point x="299" y="0" type="line"/>
      <point x="500" y="351" type="line" smooth="yes"/>
      <point x="546" y="434"/>
      <point x="565" y="445"/>
      <point x="623" y="430" type="curve"/>
      <point x="653" y="530" type="line"/>
      <point x="549" y="556"/>
      <point x="488" y="529"/>
      <point x="428" y="421" type="curve" smooth="yes"/>
      <point x="225" y="53" type="line"/>
      <point x="281" y="53" type="line"/>
      <point x="166" y="530" type="line"/>
      <point x="55" y="530" type="line"/>
    </contour>
  </outline>
</glyph>
<glyph name="Gheupturn-cy" format="2">
  <advance width="585"/>
  <unicode hex="0490"/>
  <outline>
    <contour>
      <point x="51" y="0" type="line"/>
      <point x="164" y="0" type="line"/>
      <point x="284" y="601" type="line"/>
      <point x="638" y="601" type="line"/>
      <point x="686" y="844" type="line"/>
      <point x="580" y="844" type="line"/>
      <point x="552" y="700" type="line"/>
      <point x="191" y="700" type="line"/>
    </contour>
  </outline>
</glyph>
<glyph name="haabkhasian-cy" format="2">
  <advance width="837"/>
  <unicode hex="04A9"/>
  <outline>
    <contour>
      <point x="337" y="-9" type="curve" smooth="yes"/>
      <point x="562" y="-9"/>
      <point x="769" y="161"/>
      <point x="769" y="346" type="curve" smooth="yes"/>
      <point x="769" y="462"/>
      <point x="684" y="541"/>
      <point x="557" y="541" type="curve" smooth="yes"/>
      <point x="409" y="541"/>
      <point x="303" y="434"/>
      <point x="303" y="285" type="curve" smooth="yes"/>
      <point x="303" y="75"/>
      <point x="510" y="-51"/>
      <point x="754" y="4" type="curve"/>
      <point x="765" y="83" type="line"/>
      <point x="557" y="38"/>
      <point x="400" y="120"/>
      <point x="400" y="284" type="curve" smooth="yes"/>
      <point x="400" y="385"/>
      <point x="462" y="457"/>
      <point x="551" y="457" type="curve" smooth="yes"/>
      <point x="625" y="457"/>
      <point x="670" y="408"/>
      <point x="670" y="332" type="curve" smooth="yes"/>
      <point x="670" y="191"/>
      <point x="530" y="76"/>
      <point x="363" y="76" type="curve" smooth="yes"/>
      <point x="237" y="76"/>
      <point x="157" y="150"/>
      <point x="157" y="264" type="curve" smooth="yes"/>
      <point x="157" y="355"/>
      <point x="215" y="440"/>
      <point x="315" y="493" type="curve"/>
      <point x="226" y="540" type="line"/>
      <point x="114" y="481"/>
      <point x="47" y="379"/>
      <point x="47" y="261" type="curve" smooth="yes"/>
      <point x="47" y="99"/>
      <point x="161" y="-9"/>
    </contour>
  </outline>
</glyph>
<glyph name="Shha-cy" format="2">
  <advance width="739"/>
  <unicode hex="04BA"/>
  <anchor x="522" y="0" name="bottomleft"/>
  <outline>
    <contour>
      <point x="522" y="0" type="line"/>
      <point x="635" y="0" type="line"/>
      <point x="679" y="221" type="line" smooth="yes"/>
      <point x="710" y="378"/>
      <point x="626" y="470"/>
      <point x="447" y="470" type="curve" smooth="yes"/>
      <point x="385" y="470"/>
      <point x="309" y="456"/>
      <point x="227" y="424" type="curve"/>
      <point x="215" y="319" type="line"/>
      <point x="286" y="351"/>
      <point x="360" y="369"/>
      <point x="430" y="369" type="curve" smooth="yes"/>
      <point x="537" y="369"/>
      <point x="585" y="318"/>
      <point x="565" y="216" type="curve" smooth="yes"/>
    </contour>
    <contour>
      <point x="51" y="0" type="line"/>
      <point x="164" y="0" type="line"/>
      <point x="304" y="700" type="line"/>
      <point x="191" y="700" type="line"/>
    </contour>
  </outline>
</glyph>
<glyph name="Kahook-cy" format="2">
  <advance width="721"/>
  <unicode hex="04C3"/>
  <outline>
    <contour>
      <point x="431" y="-203" type="curve" smooth="yes"/>
      <point x="557" y="-203"/>
      <point x="644" y="-118"/>
      <point x="644" y="1" type="curve" smooth="yes"/>
      <point x="644" y="109"/>
      <point x="556" y="245"/>
      <point x="439" y="390" type="curve"/>
      <point x="346" y="328" type="line"/>
      <point x="436" y="222"/>
      <point x="519" y="82"/>
      <point x="519" y="-6" type="curve" smooth="yes"/>
      <point x="519" y="-67"/>
      <point x="481" y="-105"/>
      <point x="427" y="-105" type="curve" smooth="yes"/>
      <point x="406" y="-105"/>
      <point x="384" y="-98"/>
      <point x="363" y="-86" type="curve"/>
      <point x="316" y="-173" type="line"/>
      <point x="351" y="-193"/>
      <point x="389" y="-203"/>
    </contour>
    <contour>
      <point x="51" y="0" type="line"/>
      <point x="165" y="0" type="line"/>
      <point x="305" y="700" type="line"/>
      <point x="191" y="700" type="line"/>
    </contour>
    <contour>
      <point x="192" y="302" type="line"/>
      <point x="423" y="302" type="line"/>
      <point x="441" y="402" type="line"/>
      <point x="210" y="402" type="line"/>
    </contour>
    <contour>
      <point x="445" y="339" type="line"/>
      <point x="780" y="700" type="line"/>
      <point x="651" y="700" type="line"/>
      <point x="336" y="353" type="line"/>
    </contour>
  </outline>
</glyph>
<glyph name="chekhakassian-cy" format="2">
  <advance width="611"/>
  <unicode hex="04CC"/>
  <outline>
    <contour>
      <point x="231" y="192" type="curve" smooth="yes"/>
      <point x="293" y="192"/>
      <point x="355" y="207"/>
      <point x="413" y="233" type="curve"/>
      <point x="430" y="318" type="line"/>
      <point x="376" y="294"/>
      <point x="321" y="282"/>
      <point x="273" y="282" type="curve" smooth="yes"/>
      <point x="196" y="282"/>
      <point x="156" y="315"/>
      <point x="170" y="387" type="curve" smooth="yes"/>
      <point x="199" y="532" type="line"/>
      <point x="89" y="532" type="line"/>
      <point x="59" y="380" type="line" smooth="yes"/>
      <point x="33" y="251"/>
      <point x="99" y="192"/>
    </contour>
    <contour>
      <point x="245" y="-111" type="line"/>
      <point x="349" y="-111" type="line"/>
      <point x="377" y="28" type="line"/>
      <point x="345" y="0" type="line"/>
      <point x="460" y="0" type="line"/>
      <point x="478" y="91" type="line"/>
      <point x="285" y="91" type="line"/>
    </contour>
    <contour>
      <point x="359" y="0" type="line"/>
      <point x="469" y="0" type="line"/>
      <point x="575" y="532" type="line"/>
      <point x="465" y="532" type="line"/>
    </contour>
  </outline>
</glyph>
<glyph name="dzeabkhasian-cy" format="2">
  <advance width="537"/>
  <unicode hex="04E1"/>
  <outline>
    <contour>
      <point x="154" y="-202" type="curve" smooth="yes"/>
      <point x="312" y="-202"/>
      <point x="461" y="-113"/>
      <point x="461" y="46" type="curve" smooth="yes"/>
      <point x="461" y="163"/>
      <point x="381" y="230"/>
      <point x="232" y="230" type="curve" smooth="yes"/>
      <point x="207" y="230" type="line"/>
      <point x="255" y="199" type="line"/>
      <point x="517" y="455" type="line"/>
      <point x="530" y="532" type="line"/>
      <point x="61" y="532" type="line"/>
      <point x="42" y="433" type="line"/>
      <point x="420" y="433" type="line"/>
      <point x="411" y="479" type="line"/>
      <point x="157" y="225" type="line"/>
      <point x="144" y="149" type="line"/>
      <point x="207" y="149" type="line" smooth="yes"/>
      <point x="306" y="149"/>
      <point x="346" y="107"/>
      <point x="346" y="42" type="curve" smooth="yes"/>
      <point x="346" y="-54"/>
      <point x="260" y="-98"/>
      <point x="162" y="-98" type="curve" smooth="yes"/>
      <point x="91" y="-98"/>
      <point x="15" y="-74"/>
      <point x="-38" y="-23" type="curve"/>
      <point x="-92" y="-113" type="line"/>
      <point x="-25" y="-173"/>
      <point x="65" y="-202"/>
    </contour>
  </outline>
</glyph>
<glyph name="Gestrokehook-cy" format="2">
  <advance width="624"/>
  <unicode hex="04FA"/>
  <anchor x="445" y="700" name="top"/>
  <outline>
    <contour>
      <point x="79" y="0" type="line"/>
      <point x="192" y="0" type="line"/>
      <point x="312" y="601" type="line"/>
      <point x="667" y="601" type="line"/>
      <point x="687" y="700" type="line"/>
      <point x="219" y="700" type="line"/>
    </contour>
    <contour>
      <point x="77" y="-201" type="curve" smooth="yes"/>
      <point x="170" y="-201"/>
      <point x="260" y="-143"/>
      <point x="282" y="-34" type="curve" smooth="yes"/>
      <point x="309" y="99" type="line"/>
      <point x="99" y="99" type="line"/>
      <point x="79" y="0" type="line"/>
      <point x="211" y="0" type="line"/>
      <point x="182" y="23" type="line"/>
      <point x="173" y="-21" type="line" smooth="yes"/>
      <point x="161" y="-80"/>
      <point x="120" y="-108"/>
      <point x="76" y="-108" type="curve" smooth="yes"/>
      <point x="53" y="-108"/>
      <point x="29" y="-101"/>
      <point x="8" y="-86" type="curve"/>
      <point x="-40" y="-167" type="line"/>
      <point x="-4" y="-190"/>
      <point x="37" y="-201"/>
    </contour>
    <contour>
      <point x="30" y="281" type="line"/>
      <point x="537" y="281" type="line"/>
      <point x="553" y="365" type="line"/>
      <point x="46" y="365" type="line"/>
    </contour>
  </outline>
</glyph>
<glyph name="gestrokehook-cy" format="2">
  <advance width="499"/>
  <unicode hex="04FB"/>
  <outline>
    <contour>
      <point x="60" y="0" type="line"/>
      <point x="170" y="0" type="line"/>
      <point x="257" y="436" type="line"/>
      <point x="507" y="436" type="line"/>
      <point x="527" y="532" type="line"/>
      <point x="167" y="532" type="line"/>
    </contour>
    <contour>
      <point x="38" y="-200" type="curve" smooth="yes"/>
      <point x="149" y="-200"/>
      <point x="225" y="-132"/>
      <point x="246" y="-27" type="curve" smooth="yes"/>
      <point x="271" y="96" type="line"/>
      <point x="80" y="96" type="line"/>
      <point x="60" y="0" type="line"/>
      <point x="174" y="0" type="line"/>
      <point x="146" y="23" type="line"/>
      <point x="138" y="-18" type="line" smooth="yes"/>
      <point x="126" y="-79"/>
      <point x="92" y="-110"/>
      <point x="43" y="-110" type="curve" smooth="yes"/>
      <point x="15" y="-110"/>
      <point x="-11" y="-100"/>
      <point x="-27" y="-86" type="curve"/>
      <point x="-74" y="-167" type="line"/>
      <point x="-49" y="-189"/>
      <point x="-8" y="-200"/>
    </contour>
    <contour>
      <point x="19" y="215" type="line"/>
      <point x="419" y="215" type="line"/>
      <point x="435" y="292" type="line"/>
      <point x="35" y="292" type="line"/>
    </contour>
  </outline>
</glyph>
<glyph name="hastroke-cy" format="2">
  <advance width="573"/>
  <unicode hex="04FF"/>
  <outline>
    <contour>
      <point x="77" y="227" type="line"/>
      <point x="487" y="227" type="line"/>
      <point x="503" y="304" type="line"/>
      <point x="93" y="304" type="line"/>
    </contour>
    <contour>
      <point x="-39" y="0" type="line"/>
      <point x="89" y="0" type="line"/>
      <point x="305" y="227" type="line"/>
      <point x="255" y="228" type="line"/>
      <point x="382" y="0" type="line"/>
      <point x="498" y="0" type="line"/>
      <point x="326" y="301" type="line"/>
      <point x="317" y="239" type="line"/>
      <point x="600" y="532" type="line"/>
      <point x="476" y="532" type="line"/>
      <point x="268" y="315" type="line"/>
      <point x="319" y="314" type="line"/>
      <point x="197" y="532" type="line"/>
      <point x="83" y="532" type="line"/>
      <point x="245" y="247" type="line"/>
      <point x="257" y="304" type="line"/>
    </contour>
  </outline>
</glyph>
<glyph name="Reversedze-cy" format="2">
  <advance width="674"/>
  <unicode hex="0510"/>
  <outline>
    <contour>
      <point x="319" y="-9" type="curve" smooth="yes"/>
      <point x="432" y="-9"/>
      <point x="542" y="21"/>
      <point x="610" y="67" type="curve"/>
      <point x="574" y="157" type="line"/>
      <point x="519" y="116"/>
      <point x="430" y="89"/>
      <point x="328" y="89" type="curve" smooth="yes"/>
      <point x="210" y="89"/>
      <point x="154" y="125"/>
      <point x="154" y="195" type="curve" smooth="yes"/>
      <point x="154" y="271"/>
      <point x="221" y="315"/>
      <point x="328" y="315" type="curve" smooth="yes"/>
      <point x="502" y="315" type="line"/>
      <point x="522" y="407" type="line"/>
      <point x="362" y="407" type="line" smooth="yes"/>
      <point x="288" y="407"/>
      <point x="248" y="437"/>
      <point x="248" y="490" type="curve" smooth="yes"/>
      <point x="248" y="565"/>
      <point x="320" y="611"/>
      <point x="447" y="611" type="curve" smooth="yes"/>
      <point x="513" y="611"/>
      <point x="583" y="599"/>
      <point x="645" y="564" type="curve"/>
      <point x="684" y="655" type="line"/>
      <point x="627" y="690"/>
      <point x="544" y="709"/>
      <point x="453" y="709" type="curve" smooth="yes"/>
      <point x="259" y="709"/>
      <point x="133" y="624"/>
      <point x="133" y="494" type="curve" smooth="yes"/>
      <point x="133" y="405"/>
      <point x="191" y="348"/>
      <point x="276" y="348" type="curve"/>
      <point x="277" y="382" type="line"/>
      <point x="140" y="382"/>
      <point x="39" y="297"/>
      <point x="39" y="181" type="curve" smooth="yes"/>
      <point x="39" y="60"/>
      <point x="148" y="-9"/>
    </contour>
  </outline>
</glyph>
<glyph name="quoteleft" format="2">
  <advance width="235"/>
  <unicode hex="2018"/>
  <outline>
    <contour>
      <point x="278" y="742" type="line"/>
      <point x="207" y="742" type="line"/>
      <point x="119" y="589" type="line" smooth="yes"/>
      <point x="102" y="559"/>
      <point x="94" y="541"/>
      <point x="94" y="518" type="curve" smooth="yes"/>
      <point x="94" y="476"/>
      <point x="124" y="447"/>
      <point x="164" y="447" type="curve" smooth="yes"/>
      <point x="206" y="447"/>
      <point x="243" y="480"/>
      <point x="243" y="528" type="curve" smooth="yes"/>
      <point x="243" y="568"/>
      <point x="212" y="599"/>
      <point x="172" y="599" type="curve"/>
      <point x="183" y="529" type="line"/>
    </contour>
  </outline>
</glyph>
<glyph name="daggerdbl" format="2">
  <advance width="567"/>
  <unicode hex="2021"/>
  <outline>
    <contour>
      <point x="558" y="370" type="line"/>
      <point x="577" y="466" type="line"/>
      <point x="378" y="466" type="line"/>
      <point x="424" y="700" type="line"/>
      <point x="315" y="700" type="line"/>
      <point x="268" y="466" type="line"/>
      <point x="69" y="466" type="line"/>
      <point x="50" y="370" type="line"/>
      <point x="250" y="370" type="line"/>
      <point x="203" y="136" type="line"/>
      <point x="4" y="136" type="line"/>
      <point x="-15" y="40" type="line"/>
      <point x="184" y="40" type="line"/>
      <point x="137" y="-194" type="line"/>
      <point x="247" y="-194" type="line"/>
      <point x="294" y="40" type="line"/>
      <point x="493" y="40" type="line"/>
      <point x="512" y="136" type="line"/>
      <point x="313" y="136" type="line"/>
      <point x="360" y="370" type="line"/>
    </contour>
  </outline>
</glyph>
<glyph name="bullet" format="2">
  <advance width="324"/>
  <unicode hex="2022"/>
  <outline>
    <contour>
      <point x="158" y="175" type="curve" smooth="yes"/>
      <point x="216" y="175"/>
      <point x="263" y="221"/>
      <point x="263" y="283" type="curve" smooth="yes"/>
      <point x="263" y="337"/>
      <point x="221" y="376"/>
      <point x="170" y="376" type="curve" smooth="yes"/>
      <point x="111" y="376"/>
      <point x="65" y="331"/>
      <point x="65" y="268" type="curve" smooth="yes"/>
      <point x="65" y="215"/>
      <point x="106" y="175"/>
    </contour>
  </outline>
</glyph>
<glyph name="perthousand" format="2">
  <advance width="1222"/>
  <unicode hex="2030"/>
  <outline>
    <contour>
      <point x="90" y="0" type="line"/>
      <point x="182" y="0" type="line"/>
      <point x="794" y="700" type="line"/>
      <point x="703" y="700" type="line"/>
    </contour>
    <contour>
      <point x="225" y="324" type="curve" smooth="yes"/>
      <point x="346" y="324"/>
      <point x="418" y="429"/>
      <point x="418" y="552" type="curve" smooth="yes"/>
      <point x="418" y="649"/>
      <point x="362" y="706"/>
      <point x="275" y="706" type="curve" smooth="yes"/>
      <point x="155" y="706"/>
      <point x="82" y="601"/>
      <point x="82" y="478" type="curve" smooth="yes"/>
      <point x="82" y="381"/>
      <point x="138" y="324"/>
    </contour>
    <contour>
      <point x="231" y="388" type="curve" smooth="yes"/>
      <point x="185" y="388"/>
      <point x="155" y="420"/>
      <point x="155" y="483" type="curve" smooth="yes"/>
      <point x="155" y="555"/>
      <point x="192" y="642"/>
      <point x="269" y="642" type="curve" smooth="yes"/>
      <point x="315" y="642"/>
      <point x="345" y="610"/>
      <point x="345" y="547" type="curve" smooth="yes"/>
      <point x="345" y="475"/>
      <point x="308" y="388"/>
    </contour>
    <contour>
      <point x="610" y="-7" type="curve" smooth="yes"/>
      <point x="731" y="-7"/>
      <point x="803" y="98"/>
      <point x="803" y="221" type="curve" smooth="yes"/>
      <point x="803" y="318"/>
      <point x="747" y="375"/>
      <point x="660" y="375" type="curve" smooth="yes"/>
      <point x="540" y="375"/>
      <point x="467" y="270"/>
      <point x="467" y="147" type="curve" smooth="yes"/>
      <point x="467" y="50"/>
      <point x="523" y="-7"/>
    </contour>
    <contour>
      <point x="616" y="57" type="curve" smooth="yes"/>
      <point x="570" y="57"/>
      <point x="540" y="89"/>
      <point x="540" y="152" type="curve" smooth="yes"/>
      <point x="540" y="224"/>
      <point x="577" y="311"/>
      <point x="654" y="311" type="curve" smooth="yes"/>
      <point x="700" y="311"/>
      <point x="730" y="279"/>
      <point x="730" y="216" type="curve" smooth="yes"/>
      <point x="730" y="144"/>
      <point x="693" y="57"/>
    </contour>
    <contour>
      <point x="980" y="-7" type="curve" smooth="yes"/>
      <point x="1101" y="-7"/>
      <point x="1173" y="98"/>
      <point x="1173" y="221" type="curve" smooth="yes"/>
      <point x="1173" y="318"/>
      <point x="1117" y="375"/>
      <point x="1030" y="375" type="curve" smooth="yes"/>
      <point x="910" y="375"/>
      <point x="837" y="270"/>
      <point x="837" y="147" type="curve" smooth="yes"/>
      <point x="837" y="50"/>
      <point x="893" y="-7"/>
    </contour>
    <contour>
      <point x="986" y="57" type="curve" smooth="yes"/>
      <point x="940" y="57"/>
      <point x="910" y="89"/>
      <point x="910" y="152" type="curve" smooth="yes"/>
      <point x="910" y="224"/>
      <point x="947" y="311"/>
      <point x="1024" y="311" type="curve" smooth="yes"/>
      <point x="1070" y="311"/>
      <point x="1100" y="279"/>
      <point x="1100" y="216" type="curve" smooth="yes"/>
      <point x="1100" y="144"/>
      <point x="1063" y="57"/>
    </contour>
  </outline>
</glyph>
<glyph name="minute" format="2">
  <advance width="214"/>
  <unicode hex="2032"/>
  <outline>
    <contour>
      <point x="100" y="426" type="line"/>
      <point x="180" y="426" type="line"/>
      <point x="242" y="700" type="line"/>
      <point x="146" y="700" type="line"/>
    </contour>
  </outline>
</glyph>
<glyph name="dong" format="2">
  <advance width="684"/>
  <unicode hex="20AB"/>
  <outline>
    <contour>
      <point x="273" y="-6" type="curve" smooth="yes"/>
      <point x="449" y="-6"/>
      <point x="555" y="129"/>
      <point x="555" y="330" type="curve" smooth="yes"/>
      <point x="555" y="464"/>
      <point x="473" y="538"/>
      <point x="338" y="538" type="curve" smooth="yes"/>
      <point x="165" y="538"/>
      <point x="36" y="408"/>
      <point x="36" y="226" type="curve" smooth="yes"/>
      <point x="36" y="80"/>
      <point x="138" y="-6"/>
    </contour>
    <contour>
      <point x="-22" y="-135" type="line"/>
      <point x="516" y="-135" type="line"/>
      <point x="529" y="-72" type="line"/>
      <point x="-9" y="-72" type="line"/>
    </contour>
    <contour>
      <point x="297" y="90" type="curve" smooth="yes"/>
      <point x="201" y="90"/>
      <point x="147" y="143"/>
      <point x="147" y="231" type="curve" smooth="yes"/>
      <point x="147" y="355"/>
      <point x="230" y="442"/>
      <point x="343" y="442" type="curve" smooth="yes"/>
      <point x="439" y="442"/>
      <point x="493" y="389"/>
      <point x="493" y="301" type="curve" smooth="yes"/>
      <point x="493" y="177"/>
      <point x="410" y="90"/>
    </contour>
    <contour>
      <point x="439" y="0" type="line"/>
      <point x="544" y="0" type="line"/>
      <point x="692" y="742" type="line"/>
      <point x="582" y="742" type="line"/>
      <point x="513" y="397" type="line"/>
      <point x="497" y="262" type="line"/>
      <point x="465" y="129" type="line"/>
    </contour>
    <contour>
      <point x="350" y="604" type="line"/>
      <point x="750" y="604" type="line"/>
      <point x="763" y="667" type="line"/>
      <point x="363" y="667" type="line"/>
    </contour>
  </outline>
</glyph>
<glyph name="tenge" format="2">
  <advance width="723"/>
  <unicode hex="20B8"/>
  <outline>
    <contour>
      <point x="304" y="0" type="line"/>
      <point x="419" y="0" type="line"/>
      <point x="419" y="499" type="line"/>
      <point x="655" y="499" type="line"/>
      <point x="655" y="559" type="line"/>
      <point x="69" y="559" type="line"/>
      <point x="69" y="499" type="line"/>
      <point x="304" y="499" type="line"/>
    </contour>
    <contour>
      <point x="69" y="640" type="line"/>
      <point x="655" y="640" type="line"/>
      <point x="655" y="700" type="line"/>
      <point x="69" y="700" type="line"/>
    </contour>
  </outline>
</glyph>
<glyph name="ruble" format="2">
  <advance width="756"/>
  <unicode hex="20BD"/>
  <outline>
    <contour>
      <point x="78" y="0" type="line"/>
      <point x="192" y="0" type="line"/>
      <point x="245" y="262" type="line"/>
      <point x="184" y="207" type="line"/>
      <point x="413" y="207" type="line" smooth="yes"/>
      <point x="617" y="207"/>
      <point x="744" y="313"/>
      <point x="744" y="492" type="curve" smooth="yes"/>
      <point x="744" y="623"/>
      <point x="648" y="700"/>
      <point x="482" y="700" type="curve" smooth="yes"/>
      <point x="218" y="700" type="line"/>
    </contour>
    <contour>
      <point x="-1" y="110" type="line"/>
      <point x="436" y="110" type="line"/>
      <point x="449" y="174" type="line"/>
      <point x="12" y="174" type="line"/>
    </contour>
    <contour>
      <point x="242" y="249" type="line"/>
      <point x="324" y="659" type="line"/>
      <point x="264" y="601" type="line"/>
      <point x="471" y="601" type="line" smooth="yes"/>
      <point x="572" y="601"/>
      <point x="629" y="561"/>
      <point x="629" y="481" type="curve" smooth="yes"/>
      <point x="629" y="366"/>
      <point x="551" y="306"/>
      <point x="416" y="306" type="curve" smooth="yes"/>
      <point x="202" y="306" type="line"/>
    </contour>
  </outline>
</glyph>
<glyph name="integral" format="2">
  <advance width="408"/>
  <unicode hex="222B"/>
  <outline>
    <contour>
      <point x="-8" y="-202" type="curve" smooth="yes"/>
      <point x="112" y="-202"/>
      <point x="178" y="-140"/>
      <point x="201" y="-22" type="curve" smooth="yes"/>
      <point x="320" y="568" type="line" smooth="yes"/>
      <point x="333" y="631"/>
      <point x="367" y="659"/>
      <point x="419" y="659" type="curve" smooth="yes"/>
      <point x="446" y="659"/>
      <point x="469" y="650"/>
      <point x="486" y="636" type="curve"/>
      <point x="531" y="719" type="line"/>
      <point x="506" y="740"/>
      <point x="463" y="751"/>
      <point x="419" y="751" type="curve" smooth="yes"/>
      <point x="304" y="751"/>
      <point x="234" y="689"/>
      <point x="211" y="572" type="curve" smooth="yes"/>
      <point x="91" y="-18" type="line" smooth="yes"/>
      <point x="78" y="-82"/>
      <point x="44" y="-109"/>
      <point x="-8" y="-109" type="curve" smooth="yes"/>
      <point x="-35" y="-109"/>
      <point x="-58" y="-101"/>
      <point x="-74" y="-87" type="curve"/>
      <point x="-119" y="-170" type="line"/>
      <point x="-94" y="-191"/>
      <point x="-52" y="-202"/>
    </contour>
  </outline>
</glyph>
<glyph name="AE.ss01" format="2">
  <advance width="1087"/>
  <anchor x="481" y="0" name="bottom"/>
  <anchor x="621" y="700" name="top"/>
  <outline>
    <contour>
      <point x="468" y="0" type="line"/>
      <point x="985" y="0" type="line"/>
      <point x="1004" y="97" type="line"/>
      <point x="600" y="97" type="line"/>
      <point x="643" y="309" type="line"/>
      <point x="990" y="309" type="line"/>
      <point x="1008" y="402" type="line"/>
      <point x="661" y="402" type="line"/>
      <point x="701" y="603" type="line"/>
      <point x="1091" y="603" type="line"/>
      <point x="1111" y="700" type="line"/>
      <point x="608" y="700" type="line"/>
    </contour>
    <contour>
      <point x="144" y="196" type="line"/>
      <point x="564" y="196" type="line"/>
      <point x="583" y="292" type="line"/>
      <point x="163" y="292" type="line"/>
    </contour>
    <contour>
      <point x="32" y="0" type="line"/>
      <point x="147" y="0" type="line"/>
      <point x="223" y="384" type="line" smooth="yes"/>
      <point x="251" y="522"/>
      <point x="335" y="597"/>
      <point x="462" y="597" type="curve" smooth="yes"/>
      <point x="644" y="597" type="line"/>
      <point x="665" y="700" type="line"/>
      <point x="466" y="700" type="line" smooth="yes"/>
      <point x="275" y="700"/>
      <point x="150" y="593"/>
      <point x="111" y="395" type="curve" smooth="yes"/>
    </contour>
  </outline>
</glyph>
<glyph name="De-cy.loclBGR" format="2">
  <advance width="803"/>
  <outline>
    <contour>
      <point x="-69" y="-151" type="line"/>
      <point x="37" y="-151" type="line"/>
      <point x="67" y="0" type="line"/>
      <point x="629" y="0" type="line"/>
      <point x="599" y="-151" type="line"/>
      <point x="705" y="-151" type="line"/>
      <point x="755" y="99" type="line"/>
      <point x="-19" y="99" type="line"/>
    </contour>
    <contour>
      <point x="543" y="700" type="line"/>
      <point x="430" y="700" type="line"/>
      <point x="14" y="34" type="line"/>
      <point x="132" y="34" type="line"/>
      <point x="509" y="655" type="line"/>
      <point x="446" y="655" type="line"/>
      <point x="567" y="34" type="line"/>
      <point x="688" y="34" type="line"/>
    </contour>
  </outline>
</glyph>
<glyph name="Ghestroke-cy.loclBSH" format="2">
  <advance width="593"/>
  <outline>
    <contour>
      <point x="156" y="280" type="line"/>
      <point x="502" y="280" type="line"/>
      <point x="518" y="365" type="line"/>
      <point x="172" y="365" type="line"/>
    </contour>
    <component base="Ge-cy"/>
  </outline>
</glyph>
<glyph name="Hardsign-cy.ss01" format="2">
  <advance width="879"/>
  <outline>
    <contour>
      <point x="333" y="601" type="line"/>
      <point x="447" y="700" type="line"/>
      <point x="102" y="700" type="line"/>
      <point x="82" y="601" type="line"/>
    </contour>
    <contour>
      <point x="492" y="-9" type="curve" smooth="yes"/>
      <point x="696" y="-9"/>
      <point x="838" y="106"/>
      <point x="838" y="276" type="curve" smooth="yes"/>
      <point x="838" y="407"/>
      <point x="756" y="480"/>
      <point x="606" y="480" type="curve" smooth="yes"/>
      <point x="518" y="480"/>
      <point x="437" y="455"/>
      <point x="364" y="405" type="curve"/>
      <point x="357" y="316" type="line"/>
      <point x="426" y="364"/>
      <point x="498" y="388"/>
      <point x="571" y="388" type="curve" smooth="yes"/>
      <point x="669" y="388"/>
      <point x="721" y="345"/>
      <point x="721" y="262" type="curve" smooth="yes"/>
      <point x="721" y="158"/>
      <point x="634" y="85"/>
      <point x="505" y="85" type="curve" smooth="yes"/>
      <point x="386" y="85"/>
      <point x="337" y="147"/>
      <point x="357" y="247" type="curve" smooth="yes"/>
      <point x="447" y="700" type="line"/>
      <point x="335" y="700" type="line"/>
      <point x="246" y="255" type="line" smooth="yes"/>
      <point x="213" y="91"/>
      <point x="301" y="-9"/>
    </contour>
  </outline>
</glyph>
<glyph name="I.ss01" format="2">
  <advance width="462"/>
  <anchor x="178" y="0" name="bottom"/>
  <anchor x="235" y="0" name="ogonek"/>
  <anchor x="318" y="700" name="top"/>
  <anchor x="82" y="700" name="topleft"/>
  <outline>
    <contour>
      <point x="124" y="15" type="line"/>
      <point x="238" y="15" type="line"/>
      <point x="372" y="686" type="line"/>
      <point x="258" y="686" type="line"/>
    </contour>
    <contour>
      <point x="-12" y="0" type="line"/>
      <point x="368" y="0" type="line"/>
      <point x="386" y="96" type="line"/>
      <point x="6" y="96" type="line"/>
    </contour>
    <contour>
      <point x="110" y="604" type="line"/>
      <point x="490" y="604" type="line"/>
      <point x="508" y="700" type="line"/>
      <point x="128" y="700" type="line"/>
    </contour>
  </outline>
</glyph>
<glyph name="Iacute_J.loclNLD.ss01" format="2">
  <advance width="721"/>
  <outline>
    <contour>
      <point x="272" y="-106" type="curve" smooth="yes"/>
      <point x="458" y="-106"/>
      <point x="570" y="-8"/>
      <point x="612" y="200" type="curve" smooth="yes"/>
      <point x="712" y="700" type="line"/>
      <point x="598" y="700" type="line"/>
      <point x="499" y="206" type="line" smooth="yes"/>
      <point x="469" y="58"/>
      <point x="400" y="-5"/>
      <point x="276" y="-5" type="curve" smooth="yes"/>
      <point x="203" y="-5"/>
      <point x="134" y="18"/>
      <point x="79" y="59" type="curve"/>
      <point x="22" y="-32" type="line"/>
      <point x="81" y="-76"/>
      <point x="164" y="-106"/>
    </contour>
    <contour>
      <point x="81" y="212" type="line"/>
      <point x="196" y="212" type="line"/>
      <point x="294" y="700" type="line"/>
      <point x="179" y="700" type="line"/>
    </contour>
    <contour>
      <point x="193" y="757" type="line"/>
      <point x="276" y="757" type="line"/>
      <point x="473" y="891" type="line"/>
      <point x="356" y="891" type="line"/>
    </contour>
    <contour>
      <point x="613" y="757" type="line"/>
      <point x="695" y="757" type="line"/>
      <point x="892" y="891" type="line"/>
      <point x="776" y="891" type="line"/>
    </contour>
  </outline>
</glyph>
<glyph name="J.ss01" format="2">
  <advance width="520"/>
  <anchor x="330" y="700" name="top"/>
  <outline>
    <contour>
      <point x="147" y="-109" type="curve" smooth="yes"/>
      <point x="282" y="-109"/>
      <point x="364" y="-48"/>
      <point x="398" y="124" type="curve" smooth="yes"/>
      <point x="513" y="700" type="line"/>
      <point x="150" y="700" type="line"/>
      <point x="130" y="601" type="line"/>
      <point x="381" y="601" type="line"/>
      <point x="285" y="119" type="line" smooth="yes"/>
      <point x="267" y="26"/>
      <point x="221" y="-10"/>
      <point x="149" y="-10" type="curve" smooth="yes"/>
      <point x="88" y="-10"/>
      <point x="42" y="19"/>
      <point x="15" y="69" type="curve"/>
      <point x="-63" y="-6" type="line"/>
      <point x="-26" y="-71"/>
      <point x="48" y="-109"/>
    </contour>
  </outline>
</glyph>
<glyph name="M.ss01" format="2">
  <advance width="1210"/>
  <anchor x="558" y="0" name="bottom"/>
  <anchor x="692" y="700" name="top"/>
  <outline>
    <contour>
      <point x="47" y="0" type="line"/>
      <point x="161" y="0" type="line"/>
      <point x="244" y="418" type="line" smooth="yes"/>
      <point x="271" y="551"/>
      <point x="360" y="607"/>
      <point x="459" y="607" type="curve" smooth="yes"/>
      <point x="557" y="607"/>
      <point x="608" y="552"/>
      <point x="584" y="430" type="curve" smooth="yes"/>
      <point x="498" y="0" type="line"/>
      <point x="612" y="0" type="line"/>
      <point x="695" y="418" type="line" smooth="yes"/>
      <point x="721" y="549"/>
      <point x="805" y="607"/>
      <point x="905" y="607" type="curve" smooth="yes"/>
      <point x="1003" y="607"/>
      <point x="1059" y="552"/>
      <point x="1035" y="430" type="curve" smooth="yes"/>
      <point x="949" y="0" type="line"/>
      <point x="1063" y="0" type="line"/>
      <point x="1149" y="434" type="line" smooth="yes"/>
      <point x="1185" y="613"/>
      <point x="1097" y="709"/>
      <point x="935" y="709" type="curve" smooth="yes"/>
      <point x="816" y="709"/>
      <point x="728" y="657"/>
      <point x="672" y="569" type="curve"/>
      <point x="708" y="567" type="line"/>
      <point x="698" y="653"/>
      <point x="616" y="709"/>
      <point x="496" y="709" type="curve" smooth="yes"/>
      <point x="383" y="709"/>
      <point x="299" y="659"/>
      <point x="248" y="579" type="curve"/>
      <point x="269" y="563" type="line"/>
      <point x="297" y="700" type="line"/>
      <point x="187" y="700" type="line"/>
    </contour>
  </outline>
</glyph>
<glyph name="T_h" format="2">
  <advance width="1211"/>
  <outline>
    <contour>
      <point x="187" y="0" type="line"/>
      <point x="301" y="0" type="line"/>
      <point x="421" y="601" type="line"/>
      <point x="707" y="601" type="line"/>
      <point x="727" y="700" type="line"/>
      <point x="91" y="700" type="line"/>
      <point x="71" y="601" type="line"/>
      <point x="307" y="601" type="line"/>
    </contour>
    <contour>
      <point x="947" y="538" type="curve" smooth="yes"/>
      <point x="854" y="538"/>
      <point x="775" y="504"/>
      <point x="724" y="429" type="curve"/>
      <point x="748" y="380" type="line"/>
      <point x="812" y="700" type="line"/>
      <point x="702" y="700" type="line"/>
      <point x="562" y="0" type="line"/>
      <point x="672" y="0" type="line"/>
      <point x="728" y="279" type="line" smooth="yes"/>
      <point x="750" y="388"/>
      <point x="817" y="440"/>
      <point x="914" y="440" type="curve" smooth="yes"/>
      <point x="1008" y="440"/>
      <point x="1043" y="387"/>
      <point x="1025" y="296" type="curve" smooth="yes"/>
      <point x="966" y="0" type="line"/>
      <point x="1076" y="0" type="line"/>
      <point x="1135" y="295" type="line" smooth="yes"/>
      <point x="1166" y="451"/>
      <point x="1086" y="538"/>
    </contour>
  </outline>
</glyph>
<glyph name="U.ss01" format="2">
  <advance width="794"/>
  <anchor x="341" y="0" name="bottom"/>
  <anchor x="641" y="0" name="ogonek"/>
  <anchor x="481" y="700" name="top"/>
  <anchor x="733" y="700" name="topright"/>
  <outline>
    <contour>
      <point x="327" y="-9" type="curve" smooth="yes"/>
      <point x="437" y="-9"/>
      <point x="522" y="37"/>
      <point x="578" y="119" type="curve"/>
      <point x="565" y="170" type="line"/>
      <point x="531" y="0" type="line"/>
      <point x="641" y="0" type="line"/>
      <point x="781" y="700" type="line"/>
      <point x="667" y="700" type="line"/>
      <point x="586" y="295" type="line" smooth="yes"/>
      <point x="558" y="155"/>
      <point x="469" y="93"/>
      <point x="359" y="93" type="curve" smooth="yes"/>
      <point x="240" y="93"/>
      <point x="187" y="162"/>
      <point x="215" y="300" type="curve" smooth="yes"/>
      <point x="295" y="700" type="line"/>
      <point x="181" y="700" type="line"/>
      <point x="102" y="304" type="line" smooth="yes"/>
      <point x="62" y="105"/>
      <point x="160" y="-9"/>
    </contour>
  </outline>
</glyph>
<glyph name="ae.sc" format="2">
  <advance width="886"/>
  <anchor x="407" y="0" name="bottom"/>
  <anchor x="522" y="570" name="top"/>
  <outline>
    <contour>
      <point x="-57" y="0" type="line"/>
      <point x="65" y="0" type="line"/>
      <point x="471" y="525" type="line"/>
      <point x="393" y="479" type="line"/>
      <point x="489" y="479" type="line"/>
      <point x="506" y="570" type="line"/>
      <point x="389" y="570" type="line"/>
    </contour>
    <contour>
      <point x="133" y="129" type="line"/>
      <point x="417" y="129" type="line"/>
      <point x="433" y="217" type="line"/>
      <point x="152" y="217" type="line"/>
    </contour>
    <contour>
      <point x="353" y="0" type="line"/>
      <point x="788" y="0" type="line"/>
      <point x="806" y="92" type="line"/>
      <point x="483" y="92" type="line"/>
      <point x="560" y="478" type="line"/>
      <point x="873" y="478" type="line"/>
      <point x="891" y="570" type="line"/>
      <point x="467" y="570" type="line"/>
    </contour>
    <contour>
      <point x="496" y="244" type="line"/>
      <point x="790" y="244" type="line"/>
      <point x="808" y="334" type="line"/>
      <point x="514" y="334" type="line"/>
    </contour>
  </outline>
</glyph>
<glyph name="ae.sc.ss01" format="2">
  <advance width="937"/>
  <anchor x="406" y="0" name="bottom"/>
  <anchor x="520" y="570" name="top"/>
  <outline>
    <contour>
      <point x="390" y="0" type="line"/>
      <point x="827" y="0" type="line"/>
      <point x="845" y="90" type="line"/>
      <point x="518" y="90" type="line"/>
      <point x="549" y="247" type="line"/>
      <point x="828" y="247" type="line"/>
      <point x="846" y="333" type="line"/>
      <point x="567" y="333" type="line"/>
      <point x="596" y="480" type="line"/>
      <point x="911" y="480" type="line"/>
      <point x="929" y="570" type="line"/>
      <point x="504" y="570" type="line"/>
    </contour>
    <contour>
      <point x="125" y="152" type="line"/>
      <point x="473" y="152" type="line"/>
      <point x="492" y="243" type="line"/>
      <point x="144" y="243" type="line"/>
    </contour>
    <contour>
      <point x="27" y="0" type="line"/>
      <point x="134" y="0" type="line"/>
      <point x="196" y="310" type="line" smooth="yes"/>
      <point x="217" y="417"/>
      <point x="285" y="474"/>
      <point x="387" y="474" type="curve" smooth="yes"/>
      <point x="538" y="474" type="line"/>
      <point x="557" y="570" type="line"/>
      <point x="389" y="570" type="line" smooth="yes"/>
      <point x="227" y="570"/>
      <point x="124" y="483"/>
      <point x="91" y="321" type="curve" smooth="yes"/>
    </contour>
  </outline>
</glyph>
<glyph name="brevecomb-cy" format="2">
  <anchor x="275" y="530" name="_top"/>
  <outline>
    <contour>
      <point x="295" y="599" type="curve" smooth="yes"/>
      <point x="396" y="599"/>
      <point x="460" y="647"/>
      <point x="478" y="739" type="curve"/>
      <point x="404" y="739" type="line"/>
      <point x="392" y="687"/>
      <point x="354" y="657"/>
      <point x="301" y="657" type="curve" smooth="yes"/>
      <point x="248" y="657"/>
      <point x="219" y="688"/>
      <point x="228" y="739" type="curve"/>
      <point x="155" y="739" type="line"/>
      <point x="138" y="650"/>
      <point x="190" y="599"/>
    </contour>
  </outline>
</glyph>
<glyph name="descender-cy" format="2">
  <advance width="339"/>
  <anchor x="4" y="0" name="_bottomleft"/>
  <outline>
    <contour>
      <point x="71" y="-111" type="line"/>
      <point x="174" y="-111" type="line"/>
      <point x="216" y="96" type="line"/>
      <point x="24" y="96" type="line"/>
      <point x="4" y="0" type="line"/>
      <point x="119" y="0" type="line"/>
      <point x="99" y="28" type="line"/>
    </contour>
  </outline>
</glyph>
<glyph name="descender-cy.short" format="2">
  <advance width="318"/>
  <anchor x="9" y="0" name="_bottomleft"/>
  <outline>
    <contour>
      <point x="53" y="-112" type="line"/>
      <point x="153" y="-112" type="line"/>
      <point x="195" y="94" type="line"/>
      <point x="28" y="94" type="line"/>
      <point x="9" y="0" type="line"/>
      <point x="102" y="0" type="line"/>
      <point x="81" y="27" type="line"/>
    </contour>
  </outline>
</glyph>
<glyph name="e.sc.ss01" format="2">
  <advance width="557"/>
  <anchor x="244" y="0" name="bottom"/>
  <anchor x="450" y="0" name="ogonek"/>
  <anchor x="358" y="570" name="top"/>
  <anchor x="88" y="570" name="topleft"/>
  <outline>
    <contour>
      <point x="253" y="-9" type="curve" smooth="yes"/>
      <point x="348" y="-9"/>
      <point x="439" y="15"/>
      <point x="495" y="53" type="curve"/>
      <point x="467" y="138" type="line"/>
      <point x="416" y="104"/>
      <point x="343" y="83"/>
      <point x="271" y="83" type="curve" smooth="yes"/>
      <point x="176" y="83"/>
      <point x="130" y="111"/>
      <point x="130" y="158" type="curve" smooth="yes"/>
      <point x="130" y="211"/>
      <point x="179" y="243"/>
      <point x="259" y="243" type="curve" smooth="yes"/>
      <point x="426" y="243" type="line"/>
      <point x="444" y="333" type="line"/>
      <point x="291" y="333" type="line" smooth="yes"/>
      <point x="234" y="333"/>
      <point x="203" y="357"/>
      <point x="203" y="396" type="curve" smooth="yes"/>
      <point x="203" y="450"/>
      <point x="259" y="487"/>
      <point x="355" y="487" type="curve" smooth="yes"/>
      <point x="411" y="487"/>
      <point x="469" y="477"/>
      <point x="522" y="449" type="curve"/>
      <point x="559" y="535" type="line"/>
      <point x="512" y="563"/>
      <point x="442" y="579"/>
      <point x="362" y="579" type="curve" smooth="yes"/>
      <point x="199" y="579"/>
      <point x="91" y="505"/>
      <point x="91" y="392" type="curve" smooth="yes"/>
      <point x="91" y="329"/>
      <point x="141" y="278"/>
      <point x="207" y="278" type="curve"/>
      <point x="218" y="309" type="line"/>
      <point x="100" y="309"/>
      <point x="18" y="240"/>
      <point x="18" y="144" type="curve" smooth="yes"/>
      <point x="18" y="48"/>
      <point x="103" y="-9"/>
    </contour>
  </outline>
</glyph>
<glyph name="eight.tf" format="2">
  <advance width="700"/>
  <outline>
    <contour>
      <point x="320" y="-9" type="curve" smooth="yes"/>
      <point x="508" y="-9"/>
      <point x="630" y="79"/>
      <point x="630" y="211" type="curve" smooth="yes"/>
      <point x="630" y="327"/>
      <point x="534" y="397"/>
      <point x="350" y="397" type="curve" smooth="yes"/>
      <point x="154" y="397"/>
      <point x="42" y="315"/>
      <point x="42" y="182" type="curve" smooth="yes"/>
      <point x="42" y="67"/>
      <point x="147" y="-9"/>
    </contour>
    <contour>
      <point x="326" y="84" type="curve" smooth="yes"/>
      <point x="218" y="84"/>
      <point x="157" y="127"/>
      <point x="157" y="192" type="curve" smooth="yes"/>
      <point x="157" y="270"/>
      <point x="226" y="321"/>
      <point x="344" y="321" type="curve" smooth="yes"/>
      <point x="453" y="321"/>
      <point x="515" y="278"/>
      <point x="515" y="212" type="curve" smooth="yes"/>
      <point x="515" y="135"/>
      <point x="445" y="84"/>
    </contour>
    <contour>
      <point x="387" y="334" type="curve" smooth="yes"/>
      <point x="570" y="334"/>
      <point x="670" y="411"/>
      <point x="670" y="531" type="curve" smooth="yes"/>
      <point x="670" y="639"/>
      <point x="570" y="709"/>
      <point x="413" y="709" type="curve" smooth="yes"/>
      <point x="243" y="709"/>
      <point x="131" y="627"/>
      <point x="131" y="505" type="curve" smooth="yes"/>
      <point x="131" y="399"/>
      <point x="217" y="334"/>
    </contour>
    <contour>
      <point x="393" y="407" type="curve" smooth="yes"/>
      <point x="299" y="407"/>
      <point x="244" y="446"/>
      <point x="244" y="504" type="curve" smooth="yes"/>
      <point x="244" y="572"/>
      <point x="307" y="616"/>
      <point x="407" y="616" type="curve" smooth="yes"/>
      <point x="500" y="616"/>
      <point x="557" y="578"/>
      <point x="557" y="520" type="curve" smooth="yes"/>
      <point x="557" y="452"/>
      <point x="495" y="407"/>
    </contour>
  </outline>
</glyph>
<glyph name="eng.sc" format="2">
  <advance width="700"/>
  <outline>
    <contour>
      <point x="344" y="-164" type="curve" smooth="yes"/>
      <point x="457" y="-164"/>
      <point x="531" y="-118"/>
      <point x="564" y="45" type="curve" smooth="yes"/>
      <point x="669" y="570" type="line"/>
      <point x="558" y="570" type="line"/>
      <point x="451" y="33" type="line" smooth="yes"/>
      <point x="436" y="-44"/>
      <point x="404" y="-70"/>
      <point x="351" y="-70" type="curve" smooth="yes"/>
      <point x="317" y="-70"/>
      <point x="287" y="-61"/>
      <point x="266" y="-44" type="curve"/>
      <point x="206" y="-121" type="line"/>
      <point x="240" y="-149"/>
      <point x="292" y="-164"/>
    </contour>
    <contour>
      <point x="39" y="0" type="line"/>
      <point x="150" y="0" type="line"/>
      <point x="236" y="431" type="line"/>
      <point x="201" y="433" type="line"/>
      <point x="463" y="0" type="line"/>
      <point x="506" y="138" type="line"/>
      <point x="244" y="570" type="line"/>
      <point x="153" y="570" type="line"/>
    </contour>
  </outline>
</glyph>
<glyph name="eogonek.ss01" format="2">
  <advance width="610"/>
  <anchor x="355" y="531" name="top"/>
  <outline>
    <contour>
      <point x="349" y="-226" type="curve" smooth="yes"/>
      <point x="386" y="-226"/>
      <point x="416" y="-217"/>
      <point x="442" y="-203" type="curve"/>
      <point x="430" y="-147" type="line"/>
      <point x="411" y="-157"/>
      <point x="388" y="-163"/>
      <point x="366" y="-163" type="curve" smooth="yes"/>
      <point x="337" y="-163"/>
      <point x="317" y="-148"/>
      <point x="317" y="-118" type="curve" smooth="yes"/>
      <point x="317" y="-75"/>
      <point x="358" y="-23"/>
      <point x="466" y="36" type="curve" smooth="yes"/>
      <point x="482" y="45"/>
      <point x="497" y="56"/>
      <point x="510" y="68" type="curve"/>
      <point x="464" y="148" type="line"/>
      <point x="426" y="110"/>
      <point x="368" y="90"/>
      <point x="304" y="90" type="curve" smooth="yes"/>
      <point x="194" y="90"/>
      <point x="144" y="141"/>
      <point x="144" y="232" type="curve" smooth="yes"/>
      <point x="144" y="361"/>
      <point x="219" y="446"/>
      <point x="334" y="446" type="curve" smooth="yes"/>
      <point x="431" y="446"/>
      <point x="492" y="388"/>
      <point x="476" y="283" type="curve"/>
      <point x="521" y="341" type="line"/>
      <point x="123" y="268" type="line"/>
      <point x="116" y="187" type="line"/>
      <point x="580" y="272" type="line"/>
      <point x="591" y="448"/>
      <point x="488" y="538"/>
      <point x="338" y="538" type="curve" smooth="yes"/>
      <point x="161" y="538"/>
      <point x="36" y="404"/>
      <point x="36" y="226" type="curve" smooth="yes"/>
      <point x="36" y="86"/>
      <point x="135" y="-6"/>
      <point x="294" y="-6" type="curve" smooth="yes"/>
      <point x="314" y="-6"/>
      <point x="336" y="-4"/>
      <point x="370" y="1" type="curve"/>
      <point x="346" y="17" type="line"/>
      <point x="276" y="-23"/>
      <point x="241" y="-75"/>
      <point x="241" y="-134" type="curve" smooth="yes"/>
      <point x="241" y="-193"/>
      <point x="286" y="-226"/>
    </contour>
  </outline>
</glyph>
<glyph name="er-cy.ss01" format="2">
  <advance width="672"/>
  <anchor x="317" y="0" name="bottom"/>
  <anchor x="401" y="530" name="top"/>
  <outline>
    <contour>
      <point x="382" y="538" type="curve" smooth="yes"/>
      <point x="213" y="538"/>
      <point x="102" y="432"/>
      <point x="71" y="274" type="curve" smooth="yes"/>
      <point x="-20" y="-194" type="line"/>
      <point x="90" y="-194" type="line"/>
      <point x="162" y="174" type="line"/>
      <point x="108" y="163" type="line"/>
      <point x="118" y="61"/>
      <point x="205" y="-6"/>
      <point x="326" y="-6" type="curve" smooth="yes"/>
      <point x="496" y="-6"/>
      <point x="631" y="126"/>
      <point x="631" y="302" type="curve" smooth="yes"/>
      <point x="631" y="448"/>
      <point x="537" y="538"/>
    </contour>
    <contour>
      <point x="321" y="90" type="curve" smooth="yes"/>
      <point x="231" y="90"/>
      <point x="177" y="142"/>
      <point x="177" y="236" type="curve" smooth="yes"/>
      <point x="177" y="351"/>
      <point x="257" y="442"/>
      <point x="375" y="442" type="curve" smooth="yes"/>
      <point x="465" y="442"/>
      <point x="519" y="390"/>
      <point x="519" y="296" type="curve" smooth="yes"/>
      <point x="519" y="181"/>
      <point x="439" y="90"/>
    </contour>
  </outline>
</glyph>
<glyph name="f.sc" format="2">
  <advance width="546"/>
  <outline>
    <contour>
      <point x="196" y="308" type="line"/>
      <point x="177" y="216" type="line"/>
      <point x="471" y="216" type="line"/>
      <point x="489" y="308" type="line"/>
    </contour>
    <contour>
      <point x="150" y="0" type="line"/>
      <point x="246" y="478" type="line"/>
      <point x="559" y="478" type="line"/>
      <point x="577" y="570" type="line"/>
      <point x="153" y="570" type="line"/>
      <point x="39" y="0" type="line"/>
    </contour>
  </outline>
</glyph>
<glyph name="five.dnom" format="2">
  <advance width="430"/>
  <outline>
    <contour>
      <point x="156" y="-6" type="curve" smooth="yes"/>
      <point x="276" y="-6"/>
      <point x="357" y="50"/>
      <point x="357" y="138" type="curve" smooth="yes"/>
      <point x="357" y="202"/>
      <point x="308" y="249"/>
      <point x="194" y="249" type="curve" smooth="yes"/>
      <point x="90" y="249" type="line"/>
      <point x="126" y="213" type="line"/>
      <point x="179" y="387" type="line"/>
      <point x="131" y="350" type="line"/>
      <point x="373" y="350" type="line"/>
      <point x="386" y="415" type="line"/>
      <point x="115" y="415" type="line"/>
      <point x="45" y="184" type="line"/>
      <point x="176" y="184" type="line" smooth="yes"/>
      <point x="250" y="184"/>
      <point x="277" y="167"/>
      <point x="277" y="133" type="curve" smooth="yes"/>
      <point x="277" y="87"/>
      <point x="233" y="62"/>
      <point x="162" y="62" type="curve" smooth="yes"/>
      <point x="106" y="62"/>
      <point x="53" y="79"/>
      <point x="20" y="106" type="curve"/>
      <point x="-14" y="45" type="line"/>
      <point x="17" y="16"/>
      <point x="83" y="-6"/>
    </contour>
  </outline>
</glyph>
<glyph name="four.osf" format="2">
  <advance width="674"/>
  <outline>
    <contour>
      <point x="-3" y="65" type="line"/>
      <point x="623" y="65" type="line"/>
      <point x="642" y="164" type="line"/>
      <point x="83" y="164" type="line"/>
      <point x="145" y="146" type="line"/>
      <point x="578" y="600" type="line"/>
      <point x="449" y="600" type="line"/>
      <point x="12" y="146" type="line"/>
    </contour>
    <contour>
      <point x="349" y="-100" type="line"/>
      <point x="461" y="-100" type="line"/>
      <point x="543" y="310" type="line"/>
      <point x="436" y="310" type="line"/>
      <point x="406" y="164" type="line"/>
      <point x="383" y="65" type="line"/>
    </contour>
  </outline>
</glyph>
<glyph name="g.sc" format="2">
  <advance width="655"/>
  <anchor x="289" y="0" name="bottom"/>
  <anchor x="409" y="571" name="top"/>
  <outline>
    <contour>
      <point x="321" y="-9" type="curve" smooth="yes"/>
      <point x="407" y="-9"/>
      <point x="482" y="14"/>
      <point x="539" y="55" type="curve"/>
      <point x="497" y="146" type="line"/>
      <point x="448" y="107"/>
      <point x="397" y="88"/>
      <point x="335" y="88" type="curve" smooth="yes"/>
      <point x="216" y="88"/>
      <point x="155" y="151"/>
      <point x="155" y="243" type="curve" smooth="yes"/>
      <point x="155" y="373"/>
      <point x="243" y="484"/>
      <point x="391" y="484" type="curve" smooth="yes"/>
      <point x="455" y="484"/>
      <point x="517" y="463"/>
      <point x="554" y="417" type="curve"/>
      <point x="635" y="486" type="line"/>
      <point x="588" y="546"/>
      <point x="508" y="579"/>
      <point x="402" y="579" type="curve" smooth="yes"/>
      <point x="186" y="579"/>
      <point x="43" y="430"/>
      <point x="43" y="236" type="curve" smooth="yes"/>
      <point x="43" y="91"/>
      <point x="145" y="-9"/>
    </contour>
    <contour>
      <point x="434" y="63" type="line"/>
      <point x="539" y="55" type="line"/>
      <point x="586" y="289" type="line"/>
      <point x="479" y="289" type="line"/>
    </contour>
  </outline>
</glyph>
<glyph name="guarani.BRACKET.170" format="2">
  <advance width="772"/>
  <outline>
    <contour>
      <point x="395" y="-9" type="curve" smooth="yes"/>
      <point x="490" y="-9"/>
      <point x="584" y="22"/>
      <point x="653" y="77" type="curve"/>
      <point x="608" y="170" type="line"/>
      <point x="549" y="119"/>
      <point x="484" y="93"/>
      <point x="408" y="93" type="curve" smooth="yes"/>
      <point x="252" y="93"/>
      <point x="173" y="175"/>
      <point x="173" y="295" type="curve" smooth="yes"/>
      <point x="173" y="469"/>
      <point x="295" y="607"/>
      <point x="486" y="607" type="curve" smooth="yes"/>
      <point x="573" y="607"/>
      <point x="637" y="583"/>
      <point x="684" y="527" type="curve"/>
      <point x="766" y="597" type="line"/>
      <point x="710" y="669"/>
      <point x="616" y="709"/>
      <point x="491" y="709" type="curve" smooth="yes"/>
      <point x="227" y="709"/>
      <point x="58" y="523"/>
      <point x="58" y="288" type="curve" smooth="yes"/>
      <point x="58" y="111"/>
      <point x="187" y="-9"/>
    </contour>
    <contour>
      <point x="292" y="-120" type="line"/>
      <point x="364" y="-120" type="line"/>
      <point x="397" y="44" type="line"/>
      <point x="325" y="44" type="line"/>
    </contour>
    <contour>
      <point x="547" y="95" type="line"/>
      <point x="653" y="77" type="line"/>
      <point x="709" y="356" type="line"/>
      <point x="599" y="356" type="line"/>
    </contour>
    <contour>
      <point x="447" y="653" type="line"/>
      <point x="519" y="653" type="line"/>
      <point x="552" y="820" type="line"/>
      <point x="480" y="820" type="line"/>
    </contour>
  </outline>
</glyph>
<glyph name="h.sc" format="2">
  <advance width="700"/>
  <anchor x="297" y="0" name="bottom"/>
  <anchor x="387" y="456" name="center"/>
  <anchor x="410" y="570" name="top"/>
  <outline>
    <contour>
      <point x="558" y="570" type="line"/>
      <point x="444" y="0" type="line"/>
      <point x="555" y="0" type="line"/>
      <point x="669" y="570" type="line"/>
    </contour>
    <contour>
      <point x="150" y="0" type="line"/>
      <point x="264" y="570" type="line"/>
      <point x="153" y="570" type="line"/>
      <point x="39" y="0" type="line"/>
    </contour>
    <contour>
      <point x="501" y="243" type="line"/>
      <point x="519" y="335" type="line"/>
      <point x="209" y="335" type="line"/>
      <point x="191" y="243" type="line"/>
    </contour>
  </outline>
</glyph>
<glyph name="iacute_j.loclNLD.sc.ss01" format="2">
  <advance width="625"/>
  <outline>
    <contour>
      <point x="212" y="-6" type="curve" smooth="yes"/>
      <point x="369" y="-6"/>
      <point x="488" y="85"/>
      <point x="522" y="257" type="curve" smooth="yes"/>
      <point x="585" y="570" type="line"/>
      <point x="473" y="570" type="line"/>
      <point x="410" y="251" type="line" smooth="yes"/>
      <point x="387" y="140"/>
      <point x="320" y="90"/>
      <point x="225" y="90" type="curve" smooth="yes"/>
      <point x="166" y="90"/>
      <point x="115" y="108"/>
      <point x="75" y="142" type="curve"/>
      <point x="17" y="55" type="line"/>
      <point x="63" y="18"/>
      <point x="126" y="-6"/>
    </contour>
    <contour>
      <point x="69" y="258" type="line"/>
      <point x="181" y="258" type="line"/>
      <point x="243" y="570" type="line"/>
      <point x="131" y="570" type="line"/>
    </contour>
    <contour>
      <point x="143" y="646" type="line"/>
      <point x="226" y="646" type="line"/>
      <point x="422" y="780" type="line"/>
      <point x="306" y="780" type="line"/>
    </contour>
    <contour>
      <point x="486" y="646" type="line"/>
      <point x="568" y="646" type="line"/>
      <point x="765" y="780" type="line"/>
      <point x="648" y="780" type="line"/>
    </contour>
  </outline>
</glyph>
<glyph name="lje-cy.ss01" format="2">
  <advance width="949"/>
  <outline>
    <contour>
      <point x="-44" y="1" type="line"/>
      <point x="-29" y="-6"/>
      <point x="-5" y="-9"/>
      <point x="13" y="-9" type="curve" smooth="yes"/>
      <point x="156" y="-9"/>
      <point x="208" y="192"/>
      <point x="240" y="323" type="curve" smooth="yes"/>
      <point x="275" y="465" type="line"/>
      <point x="245" y="436" type="line"/>
      <point x="509" y="436" type="line"/>
      <point x="595" y="532" type="line"/>
      <point x="193" y="532" type="line"/>
      <point x="143" y="329" type="line" smooth="yes"/>
      <point x="116" y="221"/>
      <point x="87" y="97"/>
      <point x="-4" y="97" type="curve" smooth="yes"/>
      <point x="-11" y="97"/>
      <point x="-14" y="98"/>
      <point x="-25" y="100" type="curve"/>
    </contour>
    <contour>
      <point x="622" y="-9" type="curve" smooth="yes"/>
      <point x="792" y="-9"/>
      <point x="905" y="86"/>
      <point x="905" y="222" type="curve" smooth="yes"/>
      <point x="905" y="327"/>
      <point x="841" y="383"/>
      <point x="718" y="383" type="curve" smooth="yes"/>
      <point x="657" y="383"/>
      <point x="608" y="369"/>
      <point x="556" y="336" type="curve"/>
      <point x="595" y="532" type="line"/>
      <point x="485" y="532" type="line"/>
      <point x="420" y="205" type="line" smooth="yes"/>
      <point x="393" y="68"/>
      <point x="469" y="-9"/>
    </contour>
    <contour>
      <point x="633" y="73" type="curve" smooth="yes"/>
      <point x="552" y="73"/>
      <point x="513" y="119"/>
      <point x="528" y="192" type="curve" smooth="yes"/>
      <point x="537" y="237" type="line"/>
      <point x="572" y="280"/>
      <point x="624" y="304"/>
      <point x="683" y="304" type="curve" smooth="yes"/>
      <point x="753" y="304"/>
      <point x="793" y="270"/>
      <point x="793" y="209" type="curve" smooth="yes"/>
      <point x="793" y="133"/>
      <point x="725" y="73"/>
    </contour>
  </outline>
</glyph>
<glyph name="naira.BRACKET.120" format="2">
  <advance width="885"/>
  <outline>
    <contour>
      <point x="84" y="0" type="line"/>
      <point x="198" y="0" type="line"/>
      <point x="309" y="555" type="line"/>
      <point x="274" y="560" type="line"/>
      <point x="601" y="0" type="line"/>
      <point x="695" y="0" type="line"/>
      <point x="835" y="700" type="line"/>
      <point x="721" y="700" type="line"/>
      <point x="610" y="145" type="line"/>
      <point x="645" y="140" type="line"/>
      <point x="318" y="700" type="line"/>
      <point x="224" y="700" type="line"/>
    </contour>
    <contour>
      <point x="27" y="249" type="line"/>
      <point x="187" y="249" type="line"/>
      <point x="200" y="313" type="line"/>
      <point x="40" y="313" type="line"/>
    </contour>
    <contour>
      <point x="55" y="387" type="line"/>
      <point x="216" y="387" type="line"/>
      <point x="229" y="451" type="line"/>
      <point x="68" y="451" type="line"/>
    </contour>
    <contour>
      <point x="683" y="249" type="line"/>
      <point x="851" y="249" type="line"/>
      <point x="864" y="313" type="line"/>
      <point x="695" y="313" type="line"/>
    </contour>
    <contour>
      <point x="709" y="387" type="line"/>
      <point x="879" y="387" type="line"/>
      <point x="892" y="451" type="line"/>
      <point x="721" y="451" type="line"/>
    </contour>
  </outline>
</glyph>
<glyph name="o.sc" format="2">
  <advance width="708"/>
  <anchor x="301" y="0" name="bottom"/>
  <anchor x="358" y="285" name="center"/>
  <anchor x="375" y="0" name="ogonek"/>
  <anchor x="415" y="570" name="top"/>
  <anchor x="105" y="570" name="topleft"/>
  <anchor x="583" y="570" name="topright"/>
  <outline>
    <contour>
      <point x="319" y="-9" type="curve" smooth="yes"/>
      <point x="530" y="-9"/>
      <point x="673" y="141"/>
      <point x="673" y="333" type="curve" smooth="yes"/>
      <point x="673" y="479"/>
      <point x="571" y="579"/>
      <point x="396" y="579" type="curve" smooth="yes"/>
      <point x="186" y="579"/>
      <point x="43" y="430"/>
      <point x="43" y="237" type="curve" smooth="yes"/>
      <point x="43" y="91"/>
      <point x="145" y="-9"/>
    </contour>
    <contour>
      <point x="329" y="87" type="curve" smooth="yes"/>
      <point x="216" y="87"/>
      <point x="155" y="150"/>
      <point x="155" y="242" type="curve" smooth="yes"/>
      <point x="155" y="372"/>
      <point x="243" y="483"/>
      <point x="387" y="483" type="curve" smooth="yes"/>
      <point x="500" y="483"/>
      <point x="561" y="420"/>
      <point x="561" y="327" type="curve" smooth="yes"/>
      <point x="561" y="198"/>
      <point x="473" y="87"/>
    </contour>
  </outline>
</glyph>
<glyph name="oe.sc" format="2">
  <advance width="944"/>
  <anchor x="465" y="0" name="bottom"/>
  <anchor x="579" y="570" name="top"/>
  <outline>
    <contour>
      <point x="323" y="0" type="curve" smooth="yes"/>
      <point x="439" y="0" type="line"/>
      <point x="457" y="92" type="line"/>
      <point x="336" y="92" type="line" smooth="yes"/>
      <point x="217" y="92"/>
      <point x="155" y="150"/>
      <point x="155" y="243" type="curve" smooth="yes"/>
      <point x="155" y="377"/>
      <point x="247" y="478"/>
      <point x="400" y="478" type="curve" smooth="yes"/>
      <point x="536" y="478" type="line"/>
      <point x="554" y="570" type="line"/>
      <point x="404" y="570" type="line" smooth="yes"/>
      <point x="189" y="570"/>
      <point x="43" y="436"/>
      <point x="43" y="236" type="curve" smooth="yes"/>
      <point x="43" y="92"/>
      <point x="146" y="0"/>
    </contour>
    <contour>
      <point x="411" y="0" type="line"/>
      <point x="846" y="0" type="line"/>
      <point x="864" y="92" type="line"/>
      <point x="540" y="92" type="line"/>
      <point x="618" y="478" type="line"/>
      <point x="931" y="478" type="line"/>
      <point x="949" y="570" type="line"/>
      <point x="525" y="570" type="line"/>
    </contour>
    <contour>
      <point x="554" y="244" type="line"/>
      <point x="849" y="244" type="line"/>
      <point x="867" y="334" type="line"/>
      <point x="572" y="334" type="line"/>
    </contour>
  </outline>
</glyph>
<glyph name="ohorn.sc" format="2">
  <advance width="708"/>
  <anchor x="301" y="0" name="bottom"/>
  <anchor x="415" y="570" name="top"/>
  <outline>
    <contour>
      <point x="319" y="-9" type="curve" smooth="yes"/>
      <point x="530" y="-9"/>
      <point x="673" y="141"/>
      <point x="673" y="333" type="curve" smooth="yes"/>
      <point x="673" y="415"/>
      <point x="639" y="484"/>
      <point x="573" y="524" type="curve"/>
      <point x="520" y="494" type="line"/>
      <point x="544" y="491"/>
      <point x="557" y="490"/>
      <point x="576" y="490" type="curve" smooth="yes"/>
      <point x="675" y="490"/>
      <point x="727" y="550"/>
      <point x="727" y="632" type="curve" smooth="yes"/>
      <point x="727" y="667"/>
      <point x="715" y="700"/>
      <point x="698" y="724" type="curve"/>
      <point x="630" y="698" type="line"/>
      <point x="642" y="681"/>
      <point x="650" y="660"/>
      <point x="650" y="636" type="curve" smooth="yes"/>
      <point x="650" y="598"/>
      <point x="628" y="564"/>
      <point x="575" y="564" type="curve" smooth="yes"/>
      <point x="519" y="564"/>
      <point x="479" y="579"/>
      <point x="396" y="579" type="curve" smooth="yes"/>
      <point x="186" y="579"/>
      <point x="43" y="430"/>
      <point x="43" y="237" type="curve" smooth="yes"/>
      <point x="43" y="92"/>
      <point x="145" y="-9"/>
    </contour>
    <contour>
      <point x="329" y="87" type="curve" smooth="yes"/>
      <point x="216" y="87"/>
      <point x="155" y="150"/>
      <point x="155" y="242" type="curve" smooth="yes"/>
      <point x="155" y="372"/>
      <point x="243" y="483"/>
      <point x="387" y="483" type="curve" smooth="yes"/>
      <point x="500" y="483"/>
      <point x="561" y="420"/>
      <point x="561" y="327" type="curve" smooth="yes"/>
      <point x="561" y="198"/>
      <point x="473" y="87"/>
    </contour>
  </outline>
</glyph>
<glyph name="quoteright.sc" format="2">
  <advance width="235"/>
  <outline>
    <contour>
      <point x="71" y="314" type="line"/>
      <point x="142" y="314" type="line"/>
      <point x="214" y="439" type="line" smooth="yes"/>
      <point x="232" y="471"/>
      <point x="240" y="487"/>
      <point x="240" y="508" type="curve" smooth="yes"/>
      <point x="240" y="547"/>
      <point x="211" y="577"/>
      <point x="171" y="577" type="curve" smooth="yes"/>
      <point x="129" y="577"/>
      <point x="93" y="544"/>
      <point x="93" y="499" type="curve" smooth="yes"/>
      <point x="93" y="462"/>
      <point x="123" y="432"/>
      <point x="163" y="432" type="curve"/>
      <point x="152" y="499" type="line"/>
    </contour>
  </outline>
</glyph>
<glyph name="quotesinglbase.sc" format="2">
  <advance width="235"/>
  <outline>
    <contour>
      <point x="-17" y="-122" type="line"/>
      <point x="55" y="-122" type="line"/>
      <point x="127" y="3" type="line" smooth="yes"/>
      <point x="145" y="34"/>
      <point x="153" y="51"/>
      <point x="153" y="72" type="curve" smooth="yes"/>
      <point x="153" y="111"/>
      <point x="124" y="141"/>
      <point x="84" y="141" type="curve" smooth="yes"/>
      <point x="41" y="141"/>
      <point x="6" y="108"/>
      <point x="6" y="63" type="curve" smooth="yes"/>
      <point x="6" y="26"/>
      <point x="36" y="-4"/>
      <point x="76" y="-4" type="curve"/>
      <point x="65" y="63" type="line"/>
    </contour>
  </outline>
</glyph>
<glyph name="six.dnom" format="2">
  <advance width="430"/>
  <outline>
    <contour>
      <point x="199" y="-6" type="curve" smooth="yes"/>
      <point x="305" y="-6"/>
      <point x="374" y="53"/>
      <point x="374" y="134" type="curve" smooth="yes"/>
      <point x="374" y="211"/>
      <point x="311" y="256"/>
      <point x="226" y="256" type="curve" smooth="yes"/>
      <point x="153" y="256"/>
      <point x="95" y="229"/>
      <point x="69" y="168" type="curve"/>
      <point x="98" y="155" type="line"/>
      <point x="98" y="165"/>
      <point x="97" y="174"/>
      <point x="99" y="186" type="curve" smooth="yes"/>
      <point x="103" y="280"/>
      <point x="160" y="352"/>
      <point x="281" y="352" type="curve" smooth="yes"/>
      <point x="314" y="352"/>
      <point x="344" y="347"/>
      <point x="371" y="334" type="curve"/>
      <point x="404" y="396" type="line"/>
      <point x="373" y="413"/>
      <point x="329" y="420"/>
      <point x="282" y="420" type="curve" smooth="yes"/>
      <point x="116" y="420"/>
      <point x="18" y="312"/>
      <point x="18" y="167" type="curve" smooth="yes"/>
      <point x="18" y="58"/>
      <point x="85" y="-6"/>
    </contour>
    <contour>
      <point x="196" y="55" type="curve" smooth="yes"/>
      <point x="127" y="55"/>
      <point x="103" y="92"/>
      <point x="103" y="122" type="curve" smooth="yes"/>
      <point x="103" y="167"/>
      <point x="147" y="196"/>
      <point x="206" y="196" type="curve" smooth="yes"/>
      <point x="257" y="196"/>
      <point x="294" y="172"/>
      <point x="294" y="131" type="curve" smooth="yes"/>
      <point x="294" y="84"/>
      <point x="255" y="55"/>
    </contour>
  </outline>
</glyph>
<glyph name="slashlongcomb.case" format="2">
  <anchor x="422" y="350" name="_center"/>
  <outline>
    <contour>
      <point x="-7" y="-70" type="line"/>
      <point x="84" y="-70" type="line"/>
      <point x="852" y="770" type="line"/>
      <point x="761" y="770" type="line"/>
    </contour>
  </outline>
</glyph>
<glyph name="strokeshortcomb.sc" format="2">
  <anchor x="252" y="291" name="_center"/>
  <outline>
    <contour>
      <point x="70" y="249" type="line"/>
      <point x="417" y="249" type="line"/>
      <point x="434" y="332" type="line"/>
      <point x="87" y="332" type="line"/>
    </contour>
  </outline>
</glyph>
<glyph name="strokeshortcomb.t" format="2">
  <anchor x="334" y="436" name="_center"/>
  <outline>
    <contour>
      <point x="165" y="398" type="line"/>
      <point x="488" y="398" type="line"/>
      <point x="503" y="474" type="line"/>
      <point x="180" y="474" type="line"/>
    </contour>
  </outline>
</glyph>
<glyph name="t.sc" format="2">
  <advance width="501"/>
  <anchor x="198" y="0" name="bottom"/>
  <anchor x="252" y="270" name="center"/>
  <anchor x="312" y="570" name="top"/>
  <outline>
    <contour>
      <point x="142" y="0" type="line"/>
      <point x="253" y="0" type="line"/>
      <point x="349" y="478" type="line"/>
      <point x="540" y="478" type="line"/>
      <point x="558" y="570" type="line"/>
      <point x="65" y="570" type="line"/>
      <point x="47" y="478" type="line"/>
      <point x="238" y="478" type="line"/>
    </contour>
  </outline>
</glyph>
<glyph name="t.sc.ss01" format="2">
  <advance width="513"/>
  <anchor x="204" y="0" name="bottom"/>
  <anchor x="256" y="261" name="center"/>
  <anchor x="319" y="571" name="top"/>
  <outline>
    <contour>
      <point x="148" y="0" type="line"/>
      <point x="259" y="0" type="line"/>
      <point x="363" y="522" type="line"/>
      <point x="252" y="522" type="line"/>
    </contour>
    <contour>
      <point x="69" y="426" type="line"/>
      <point x="131" y="463"/>
      <point x="209" y="483"/>
      <point x="290" y="483" type="curve" smooth="yes"/>
      <point x="380" y="483"/>
      <point x="452" y="463"/>
      <point x="516" y="424" type="curve"/>
      <point x="566" y="510" type="line"/>
      <point x="497" y="555"/>
      <point x="406" y="579"/>
      <point x="306" y="579" type="curve" smooth="yes"/>
      <point x="211" y="579"/>
      <point x="111" y="556"/>
      <point x="39" y="512" type="curve"/>
    </contour>
  </outline>
</glyph>
<glyph name="three.dnom" format="2">
  <advance width="430"/>
  <outline>
    <contour>
      <point x="157" y="-6" type="curve" smooth="yes"/>
      <point x="277" y="-6"/>
      <point x="358" y="50"/>
      <point x="358" y="138" type="curve" smooth="yes"/>
      <point x="358" y="202"/>
      <point x="309" y="246"/>
      <point x="216" y="246" type="curve" smooth="yes"/>
      <point x="188" y="246" type="line"/>
      <point x="226" y="223" type="line"/>
      <point x="384" y="364" type="line"/>
      <point x="394" y="415" type="line"/>
      <point x="69.01" y="415" type="line"/>
      <point x="56" y="350" type="line"/>
      <point x="320" y="350" type="line"/>
      <point x="306" y="379" type="line"/>
      <point x="150" y="239" type="line"/>
      <point x="139" y="186" type="line"/>
      <point x="195" y="186" type="line" smooth="yes"/>
      <point x="251" y="186"/>
      <point x="278" y="167"/>
      <point x="278" y="133" type="curve" smooth="yes"/>
      <point x="278" y="87"/>
      <point x="234" y="62"/>
      <point x="163" y="62" type="curve" smooth="yes"/>
      <point x="107" y="62"/>
      <point x="54" y="79"/>
      <point x="21" y="106" type="curve"/>
      <point x="-13" y="45" type="line"/>
      <point x="18" y="16"/>
      <point x="84" y="-6"/>
    </contour>
  </outline>
</glyph>
<glyph name="two.dnom" format="2">
  <advance width="430"/>
  <outline>
    <contour>
      <point x="-9" y="0" type="line"/>
      <point x="329" y="0" type="line"/>
      <point x="341" y="65" type="line"/>
      <point x="69" y="65" type="line"/>
      <point x="89" y="36" type="line"/>
      <point x="267" y="164" type="line" smooth="yes"/>
      <point x="357" y="229"/>
      <point x="371" y="263"/>
      <point x="371" y="308" type="curve" smooth="yes"/>
      <point x="371" y="375"/>
      <point x="313" y="421"/>
      <point x="218" y="421" type="curve" smooth="yes"/>
      <point x="142" y="421"/>
      <point x="80" y="395"/>
      <point x="42" y="353" type="curve"/>
      <point x="91" y="310" type="line"/>
      <point x="120" y="337"/>
      <point x="159" y="353"/>
      <point x="207" y="353" type="curve" smooth="yes"/>
      <point x="262" y="353"/>
      <point x="291" y="333"/>
      <point x="291" y="300" type="curve" smooth="yes"/>
      <point x="291" y="271"/>
      <point x="275" y="247"/>
      <point x="214" y="204" type="curve" smooth="yes"/>
      <point x="1" y="51" type="line"/>
    </contour>
  </outline>
</glyph>
<glyph name="udieresis.sc.alt.BRACKET.133" format="2">
  <advance width="681"/>
  <outline>
    <contour>
      <point x="304" y="-9" type="curve" smooth="yes"/>
      <point x="462" y="-9"/>
      <point x="557" y="76"/>
      <point x="590" y="244" type="curve" smooth="yes"/>
      <point x="655" y="570" type="line"/>
      <point x="546" y="570" type="line"/>
      <point x="482" y="251" type="line" smooth="yes"/>
      <point x="459" y="138"/>
      <point x="407" y="89"/>
      <point x="316" y="89" type="curve" smooth="yes"/>
      <point x="219" y="89"/>
      <point x="173" y="144"/>
      <point x="195" y="252" type="curve" smooth="yes"/>
      <point x="259" y="570" type="line"/>
      <point x="148" y="570" type="line"/>
      <point x="84" y="250" type="line" smooth="yes"/>
      <point x="52" y="92"/>
      <point x="138" y="-9"/>
    </contour>
    <contour>
      <point x="360" y="321" type="curve" smooth="yes"/>
      <point x="394" y="321"/>
      <point x="424" y="349"/>
      <point x="424" y="387" type="curve" smooth="yes"/>
      <point x="424" y="419"/>
      <point x="398" y="441"/>
      <point x="368" y="441" type="curve" smooth="yes"/>
      <point x="333" y="441"/>
      <point x="304" y="414"/>
      <point x="304" y="375" type="curve" smooth="yes"/>
      <point x="304" y="344"/>
      <point x="329" y="321"/>
    </contour>
    <contour>
      <point x="388" y="459" type="curve" smooth="yes"/>
      <point x="422" y="459"/>
      <point x="452" y="487"/>
      <point x="452" y="525" type="curve" smooth="yes"/>
      <point x="452" y="557"/>
      <point x="426" y="579"/>
      <point x="396" y="579" type="curve" smooth="yes"/>
      <point x="361" y="579"/>
      <point x="332" y="552"/>
      <point x="332" y="513" type="curve" smooth="yes"/>
      <point x="332" y="482"/>
      <point x="357" y="459"/>
    </contour>
  </outline>
</glyph>
<glyph name="udieresis.sc.ss01.alt" format="2">
  <advance width="688"/>
  <outline>
    <contour>
      <point x="269" y="-9" type="curve" smooth="yes"/>
      <point x="363" y="-9"/>
      <point x="443" y="33"/>
      <point x="483" y="103" type="curve"/>
      <point x="464" y="135" type="line"/>
      <point x="437" y="0" type="line"/>
      <point x="543" y="0" type="line"/>
      <point x="657" y="570" type="line"/>
      <point x="546" y="570" type="line"/>
      <point x="480" y="241" type="line" smooth="yes"/>
      <point x="458" y="133"/>
      <point x="390" y="88"/>
      <point x="303" y="88" type="curve" smooth="yes"/>
      <point x="214" y="88"/>
      <point x="173" y="138"/>
      <point x="194" y="243" type="curve" smooth="yes"/>
      <point x="259" y="570" type="line"/>
      <point x="148" y="570" type="line"/>
      <point x="84" y="250" type="line" smooth="yes"/>
      <point x="51" y="85"/>
      <point x="134" y="-9"/>
    </contour>
    <contour>
      <point x="326" y="483" type="curve" smooth="yes"/>
      <point x="353" y="483"/>
      <point x="377" y="505"/>
      <point x="377" y="536" type="curve" smooth="yes"/>
      <point x="377" y="561"/>
      <point x="356" y="579"/>
      <point x="332" y="579" type="curve" smooth="yes"/>
      <point x="304" y="579"/>
      <point x="281" y="557"/>
      <point x="281" y="526" type="curve" smooth="yes"/>
      <point x="281" y="501"/>
      <point x="301" y="483"/>
    </contour>
    <contour>
      <point x="457" y="483" type="curve" smooth="yes"/>
      <point x="484" y="483"/>
      <point x="508" y="505"/>
      <point x="508" y="536" type="curve" smooth="yes"/>
      <point x="508" y="561"/>
      <point x="488" y="579"/>
      <point x="463" y="579" type="curve" smooth="yes"/>
      <point x="435" y="579"/>
      <point x="412" y="557"/>
      <point x="412" y="526" type="curve" smooth="yes"/>
      <point x="412" y="501"/>
      <point x="432" y="483"/>
    </contour>
  </outline>
</glyph>
<glyph name="uogonek.sc" format="2">
  <advance width="681"/>
  <anchor x="402" y="570" name="top"/>
  <outline>
    <contour>
      <point x="546" y="570" type="line"/>
      <point x="482" y="251" type="line" smooth="yes"/>
      <point x="459" y="138"/>
      <point x="407" y="89"/>
      <point x="316" y="89" type="curve" smooth="yes"/>
      <point x="219" y="89"/>
      <point x="173" y="144"/>
      <point x="195" y="252" type="curve" smooth="yes"/>
      <point x="259" y="570" type="line"/>
      <point x="148" y="570" type="line"/>
      <point x="84" y="250" type="line" smooth="yes"/>
      <point x="52" y="92"/>
      <point x="138" y="-9"/>
      <point x="304" y="-9" type="curve" smooth="yes"/>
      <point x="318" y="-9"/>
      <point x="333" y="-8"/>
      <point x="345" y="-7" type="curve"/>
      <point x="286" y="17" type="line"/>
      <point x="205" y="-23"/>
      <point x="161" y="-73"/>
      <point x="161" y="-134" type="curve" smooth="yes"/>
      <point x="161" y="-193"/>
      <point x="208" y="-226"/>
      <point x="273" y="-226" type="curve" smooth="yes"/>
      <point x="311" y="-226"/>
      <point x="342" y="-217"/>
      <point x="369" y="-203" type="curve"/>
      <point x="356" y="-147" type="line"/>
      <point x="337" y="-157"/>
      <point x="313" y="-163"/>
      <point x="290" y="-163" type="curve" smooth="yes"/>
      <point x="260" y="-163"/>
      <point x="240" y="-148"/>
      <point x="240" y="-120" type="curve" smooth="yes"/>
      <point x="240" y="-77"/>
      <point x="289" y="-31"/>
      <point x="405" y="5" type="curve" smooth="yes"/>
      <point x="504" y="36"/>
      <point x="565" y="115"/>
      <point x="590" y="244" type="curve" smooth="yes"/>
      <point x="655" y="570" type="line"/>
    </contour>
  </outline>
</glyph>
<glyph name="w.sc" format="2">
  <advance width="967"/>
  <anchor x="431" y="0" name="bottom"/>
  <anchor x="544" y="570" name="top"/>
  <outline>
    <contour>
      <point x="168" y="0" type="line"/>
      <point x="287" y="0" type="line"/>
      <point x="541" y="459" type="line"/>
      <point x="507" y="460" type="line"/>
      <point x="570" y="0" type="line"/>
      <point x="689" y="0" type="line"/>
      <point x="996" y="570" type="line"/>
      <point x="885" y="570" type="line"/>
      <point x="607" y="58" type="line"/>
      <point x="662" y="58" type="line"/>
      <point x="596" y="570" type="line"/>
      <point x="493" y="570" type="line"/>
      <point x="212" y="58" type="line"/>
      <point x="270" y="58" type="line"/>
      <point x="202" y="570" type="line"/>
      <point x="93" y="570" type="line"/>
    </contour>
  </outline>
</glyph>
<glyph name="x.sc" format="2">
  <advance width="582"/>
  <outline>
    <contour>
      <point x="-43" y="0" type="line"/>
      <point x="91" y="0" type="line"/>
      <point x="317" y="245" type="line"/>
      <point x="264" y="246" type="line"/>
      <point x="398" y="0" type="line"/>
      <point x="518" y="0" type="line"/>
      <point x="338" y="325" type="line"/>
      <point x="333" y="261" type="line"/>
      <point x="622" y="570" type="line"/>
      <point x="494" y="570" type="line"/>
      <point x="283" y="342" type="line"/>
      <point x="329" y="341" type="line"/>
      <point x="204" y="570" type="line"/>
      <point x="85" y="570" type="line"/>
      <point x="253" y="266" type="line"/>
      <point x="265" y="327" type="line"/>
    </contour>
  </outline>
</glyph>
<glyph name="y.ss01" format="2">
  <advance width="679"/>
  <anchor x="613" y="0" name="bottom"/>
  <anchor x="390" y="532" name="top"/>
  <outline>
    <contour>
      <point x="535" y="532" type="line"/>
      <point x="485" y="282" type="line" smooth="yes"/>
      <point x="463" y="173"/>
      <point x="396" y="121"/>
      <point x="301" y="121" type="curve" smooth="yes"/>
      <point x="209" y="121"/>
      <point x="174" y="174"/>
      <point x="192" y="265" type="curve" smooth="yes"/>
      <point x="245" y="532" type="line"/>
      <point x="135" y="532" type="line"/>
      <point x="82" y="266" type="line" smooth="yes"/>
      <point x="51" y="110"/>
      <point x="133" y="23"/>
      <point x="268" y="23" type="curve" smooth="yes"/>
      <point x="359" y="23"/>
      <point x="438" y="57"/>
      <point x="489" y="132" type="curve"/>
      <point x="464" y="175" type="line"/>
      <point x="441" y="61" type="line" smooth="yes"/>
      <point x="418" y="-51"/>
      <point x="366" y="-103"/>
      <point x="252" y="-103" type="curve" smooth="yes"/>
      <point x="179" y="-103"/>
      <point x="112" y="-80"/>
      <point x="67" y="-38" type="curve"/>
      <point x="9" y="-123" type="line"/>
      <point x="65" y="-173"/>
      <point x="149" y="-200"/>
      <point x="245" y="-200" type="curve" smooth="yes"/>
      <point x="414" y="-200"/>
      <point x="513" y="-126"/>
      <point x="552" y="67" type="curve" smooth="yes"/>
      <point x="645" y="532" type="line"/>
    </contour>
  </outline>
</glyph>
<glyph name="yeru-cy.ss01" format="2">
  <advance width="822"/>
  <anchor x="465" y="532" name="top"/>
  <outline>
    <contour>
      <point x="570" y="4" type="line"/>
      <point x="680" y="4" type="line"/>
      <point x="786" y="532" type="line"/>
      <point x="676" y="532" type="line"/>
    </contour>
    <contour>
      <point x="260" y="-9" type="curve" smooth="yes"/>
      <point x="427" y="-9"/>
      <point x="538" y="86"/>
      <point x="538" y="223" type="curve" smooth="yes"/>
      <point x="538" y="327"/>
      <point x="476" y="383"/>
      <point x="356" y="383" type="curve" smooth="yes"/>
      <point x="297" y="383"/>
      <point x="249" y="369"/>
      <point x="199" y="336" type="curve"/>
      <point x="238" y="532" type="line"/>
      <point x="128" y="532" type="line"/>
      <point x="63" y="205" type="line" smooth="yes"/>
      <point x="36" y="68"/>
      <point x="109" y="-9"/>
    </contour>
    <contour>
      <point x="271" y="73" type="curve" smooth="yes"/>
      <point x="193" y="73"/>
      <point x="156" y="119"/>
      <point x="171" y="192" type="curve" smooth="yes"/>
      <point x="180" y="237" type="line"/>
      <point x="214" y="280"/>
      <point x="264" y="304"/>
      <point x="320" y="304" type="curve" smooth="yes"/>
      <point x="388" y="304"/>
      <point x="426" y="270"/>
      <point x="426" y="210" type="curve" smooth="yes"/>
      <point x="426" y="133"/>
      <point x="360" y="73"/>
    </contour>
  </outline>
</glyph>
<glyph name="z.ss01" format="2">
  <advance width="536"/>
  <anchor x="217" y="0" name="bottom"/>
  <anchor x="323" y="532" name="top"/>
  <outline>
    <contour>
      <point x="-10" y="0" type="line"/>
      <point x="442" y="0" type="line"/>
      <point x="460" y="90" type="line"/>
      <point x="94" y="90" type="line"/>
      <point x="116" y="52" type="line"/>
      <point x="527" y="461" type="line"/>
      <point x="541" y="532" type="line"/>
      <point x="105" y="532" type="line"/>
      <point x="87" y="442" type="line"/>
      <point x="436" y="442" type="line"/>
      <point x="415" y="480" type="line"/>
      <point x="4" y="71" type="line"/>
    </contour>
    <contour>
      <point x="271" y="225" type="line"/>
      <point x="452" y="225" type="line"/>
      <point x="469" y="311" type="line"/>
      <point x="319" y="311" type="line"/>
      <point x="290" y="312" type="line"/>
      <point x="94" y="312" type="line"/>
      <point x="77" y="226" type="line"/>
      <point x="241" y="226" type="line"/>
    </contour>
  </outline>
</glyph>
<glyph name="ze-cy.loclBGR" format="2">
  <advance width="502"/>
  <outline>
    <contour>
      <point x="124" y="-202" type="curve" smooth="yes"/>
      <point x="288" y="-202"/>
      <point x="412" y="-101"/>
      <point x="412" y="34" type="curve" smooth="yes"/>
      <point x="412" y="120"/>
      <point x="360" y="178"/>
      <point x="272" y="189" type="curve"/>
      <point x="275" y="175" type="line"/>
      <point x="379" y="189"/>
      <point x="454" y="271"/>
      <point x="454" y="371" type="curve" smooth="yes"/>
      <point x="454" y="475"/>
      <point x="374" y="541"/>
      <point x="245" y="541" type="curve" smooth="yes"/>
      <point x="187" y="541"/>
      <point x="121" y="527"/>
      <point x="49" y="498" type="curve"/>
      <point x="72" y="412" type="line"/>
      <point x="132" y="434"/>
      <point x="181" y="445"/>
      <point x="221" y="445" type="curve" smooth="yes"/>
      <point x="294" y="445"/>
      <point x="338" y="408"/>
      <point x="338" y="348" type="curve" smooth="yes"/>
      <point x="338" y="277"/>
      <point x="279" y="219"/>
      <point x="206" y="219" type="curve" smooth="yes"/>
      <point x="96" y="219" type="line"/>
      <point x="80" y="134" type="line"/>
      <point x="202" y="134" type="line" smooth="yes"/>
      <point x="263" y="134"/>
      <point x="300" y="95"/>
      <point x="300" y="36" type="curve" smooth="yes"/>
      <point x="300" y="-47"/>
      <point x="229" y="-104"/>
      <point x="124" y="-104" type="curve" smooth="yes"/>
      <point x="66" y="-104"/>
      <point x="2" y="-86"/>
      <point x="-44" y="-58" type="curve"/>
      <point x="-83" y="-138" type="line"/>
      <point x="-26" y="-178"/>
      <point x="47" y="-202"/>
    </contour>
  </outline>
</glyph>
<glyph name="zero.dnom" format="2">
  <advance width="430"/>
  <outline>
    <contour>
      <point x="177" y="-5" type="curve" smooth="yes"/>
      <point x="313" y="-5"/>
      <point x="395" y="109"/>
      <point x="395" y="252" type="curve" smooth="yes"/>
      <point x="395" y="359"/>
      <point x="335" y="420"/>
      <point x="230" y="420" type="curve" smooth="yes"/>
      <point x="94" y="420"/>
      <point x="12" y="306"/>
      <point x="12" y="164" type="curve" smooth="yes"/>
      <point x="12" y="56"/>
      <point x="72" y="-5"/>
    </contour>
    <contour>
      <point x="183" y="62" type="curve" smooth="yes"/>
      <point x="126" y="62"/>
      <point x="91" y="96"/>
      <point x="91" y="166" type="curve" smooth="yes"/>
      <point x="91" y="254"/>
      <point x="138" y="353"/>
      <point x="224" y="353" type="curve" smooth="yes"/>
      <point x="282" y="353"/>
      <point x="316" y="319"/>
      <point x="316" y="249" type="curve" smooth="yes"/>
      <point x="316" y="161"/>
      <point x="269" y="62"/>
    </contour>
  </outline>
</glyph>
